<?xml version="1.0" encoding="UTF-8" standalone="no"?>
<!DOCTYPE svg PUBLIC "-//W3C//DTD SVG 1.1//EN" "http://www.w3.org/Graphics/SVG/1.1/DTD/svg11.dtd">
<svg xmlns="http://www.w3.org/2000/svg" xmlns:xlink="http://www.w3.org/1999/xlink" version="1.1">
<metadata>
Created by FontForge 20150824 at Mon Sep  5 02:10:01 2016
 By Everything Fonts
Copyright 2014, 2015 Adobe Systems Incorporated (http://www.adobe.com/), with Reserved Font Name 'Source'. Source is a trademark of Adobe Systems Incorporated in the United States and/or other countries.
</metadata>
<defs>
<font id="SourceHanSansSC-Light" horiz-adv-x="1000" vert-adv-y="1000">
  <font-face font-family="Source Han Sans Simplified Chinese" font-weight="300" font-stretch="normal" units-per-em="1000" panose-1="2 11 3 0 0 0 0 0 0 0" ascent="880" descent="-120" bbox="19 -277 982 850" underline-thickness="50" underline-position="-150" unicode-range="U+0030-9F99"/>
<missing-glyph/>
    <glyph glyph-name=".notdef"/>
    <glyph glyph-name="Identity.17" unicode="0" horiz-adv-x="535" d="M268 -13c-133 0 -215 124 -215 380c0 253 82 375 215 375c132 0 214 -122 214 -375c0 -256 -82 -380 -214 -380zM268 36c94 0 156 110 156 331c0 217 -62 326 -156 326c-95 0 -157 -109 -157 -326c0 -221 62 -331 157 -331z"/>
    <glyph glyph-name="Identity.18" unicode="1" horiz-adv-x="535" d="M92 0v51h165v593h-127v39c59 10 104 26 139 46h47v-678h152v-51h-376z"/>
    <glyph glyph-name="Identity.19" unicode="2" horiz-adv-x="535" d="M45 0v36c247 213 345 363 345 495c0 91 -46 162 -149 162c-63 0 -120 -39 -162 -91l-37 35c55 61 117 105 205 105c127 0 202 -83 202 -209c0 -153 -118 -306 -312 -487c40 3 82 6 120 6h227v-52h-439z"/>
    <glyph glyph-name="Identity.20" unicode="3" horiz-adv-x="535" d="M258 -13c-113 0 -181 51 -227 100l33 39c42 -45 99 -89 192 -89c94 0 162 62 162 156c0 98 -68 164 -242 164v49c160 0 216 69 216 156c0 79 -54 131 -138 132c-63 -1 -120 -34 -160 -77l-34 40c50 47 112 85 195 86c112 -1 197 -64 197 -177c0 -94 -56 -154 -134 -180 v-5c88 -19 160 -85 160 -188c0 -127 -96 -206 -220 -206z"/>
    <glyph glyph-name="Identity.21" unicode="4" horiz-adv-x="535" d="M86 257h255v269c0 33 3 87 6 121h-5c-17 -33 -37 -68 -58 -101zM501 257v-49h-103v-208h-57v208h-322v37l322 484h57v-472h103z"/>
    <glyph glyph-name="Identity.22" unicode="5" horiz-adv-x="535" d="M253 -13c-113 0 -178 49 -225 95l32 41c42 -44 96 -86 191 -86c92 0 170 77 170 195c0 116 -65 187 -167 187c-53 0 -88 -18 -129 -46l-38 23l25 333h333v-51h-281l-21 -245c35 21 72 35 122 35c120 0 216 -72 216 -234c0 -158 -112 -247 -228 -247z"/>
    <glyph glyph-name="Identity.23" unicode="6" horiz-adv-x="535" d="M294 36c79 0 138 78 138 184s-44 182 -148 182c-48 0 -111 -28 -167 -104c9 -160 66 -262 177 -262zM476 672l-35 -38c-31 38 -74 58 -119 58c-110 0 -203 -87 -206 -338c48 59 112 95 176 95c124 0 198 -79 198 -229c0 -137 -91 -233 -197 -233 c-141 0 -234 125 -234 357c0 294 125 398 262 398c68 0 117 -28 155 -70z"/>
    <glyph glyph-name="Identity.24" unicode="7" horiz-adv-x="535" d="M205 0c12 291 67 476 212 678h-369v51h440v-35c-173 -227 -209 -409 -220 -694h-63z"/>
    <glyph glyph-name="Identity.25" unicode="8" horiz-adv-x="535" d="M271 -13c-131 0 -226 83 -226 194c0 100 72 171 139 208v4c-52 35 -100 89 -100 166c0 106 82 180 188 180c121 0 193 -81 193 -191c0 -79 -59 -148 -100 -181v-5c62 -37 124 -90 124 -190c0 -103 -88 -185 -218 -185zM322 383c58 48 89 103 89 163 c0 79 -51 146 -140 146c-76 0 -131 -56 -131 -133c0 -99 91 -140 182 -176zM271 34c97 0 160 61 160 139c0 111 -102 151 -212 194c-69 -41 -119 -104 -119 -183c0 -85 72 -150 171 -150z"/>
    <glyph glyph-name="Identity.26" unicode="9" horiz-adv-x="535" d="M250 327c54 0 115 31 170 107c-6 159 -64 260 -178 260c-79 0 -138 -79 -138 -185c0 -105 45 -182 146 -182zM61 57l35 38c33 -38 77 -58 127 -58c101 0 192 88 198 340c-48 -58 -110 -97 -178 -97c-122 0 -197 81 -197 229c0 137 91 233 197 233 c141 0 235 -118 235 -338c0 -307 -123 -417 -256 -417c-71 0 -122 29 -161 70z"/>
    <glyph glyph-name="Identity.93" unicode="|" horiz-adv-x="254" d="M105 -277v1108h44v-1108h-44z"/>
    <glyph glyph-name="Identity.9831" unicode="一" d="M49 417h906v-53h-906v53z"/>
    <glyph glyph-name="Identity.9840" unicode="万" d="M935 707h-529c-2 -73 -5 -152 -14 -230h446s-1 -19 -1 -26c-19 -332 -36 -451 -75 -491c-18 -21 -39 -27 -74 -29c-35 -1 -106 0 -176 6c-1 15 -7 33 -17 47c78 -8 153 -8 178 -8c24 -1 37 1 47 12c33 30 50 144 67 443h-401c-28 -203 -103 -400 -306 -508 c-8 11 -24 26 -36 34c290 149 307 485 313 750h-291v46h869v-46z"/>
    <glyph glyph-name="Identity.9842" unicode="三" d="M127 735h750v-48h-750v48zM187 407h612v-48h-612v48zM68 55h864v-48h-864v48z"/>
    <glyph glyph-name="Identity.9843" unicode="上" d="M491 22h453v-48h-887v48h384v794h50v-320h385v-47h-385v-427z"/>
    <glyph glyph-name="Identity.9844" unicode="下" d="M942 711h-436v-192l10 12c125 -60 284 -153 365 -212l-31 -42c-77 57 -221 145 -344 207v-556h-50v783h-397v48h883v-48z"/>
    <glyph glyph-name="Identity.9846" unicode="不" d="M927 712h-324c-23 -41 -50 -81 -79 -122v-662h-50v600c-106 -127 -240 -239 -389 -319c-8 11 -23 30 -32 39c205 107 388 283 491 464h-470v48h853v-48zM566 495l34 31c123 -75 275 -185 350 -261l-36 -36c-73 75 -224 189 -348 266z"/>
    <glyph glyph-name="Identity.9847" d="M944 248v-46h-189c-23 -146 -47 -216 -81 -247c-21 -21 -42 -26 -80 -28c-34 -1 -109 1 -184 7c-1 14 -7 34 -17 47c82 -7 160 -8 188 -8c27 0 41 1 53 11c28 25 51 88 72 218h-647v46h654c7 48 14 104 20 169h-458c-5 -21 -10 -40 -15 -57l-49 6c35 118 82 325 110 469 l48 -5c-9 -46 -20 -97 -32 -149h505v-46h-515c-13 -60 -27 -119 -40 -172h499s-1 -19 -2 -27c-8 -72 -15 -135 -23 -188h183z"/>
    <glyph glyph-name="Identity.9848" unicode="与" d="M684 224v-46h-620v46h620zM232 432h643s-1 -18 -2 -25c-31 -288 -58 -400 -103 -442c-21 -20 -42 -25 -79 -27c-33 -1 -104 1 -174 7c-1 14 -7 33 -17 46c77 -7 152 -7 179 -7c26 0 39 1 51 11c38 32 65 139 92 392h-652c31 106 73 291 99 421l47 -6 c-7 -37 -16 -76 -25 -117h576v-47h-586c-16 -74 -33 -147 -49 -206z"/>
    <glyph glyph-name="Identity.9857" unicode="专" d="M919 478h-544c-16 -46 -32 -90 -46 -128h458l8 3l37 -22c-75 -75 -186 -183 -281 -274c69 -29 132 -61 176 -87l-31 -40c-94 58 -282 141 -431 188l29 34c66 -19 140 -46 209 -74c80 73 172 162 236 226h-480c20 48 43 109 67 174h-264v46h279c17 46 33 93 49 139h-249 v46h263c15 43 28 84 38 122h50c-11 -39 -25 -80 -39 -122h395v-46h-410c-15 -46 -31 -93 -47 -139h528v-46z"/>
    <glyph glyph-name="Identity.9858" unicode="且" d="M267 223v-205h472v205h-472zM739 725h-472v-202h472v202zM739 269v209h-472v-209h472zM788 18h155v-47h-885v47h162v754h568v-754z"/>
    <glyph glyph-name="Identity.9861" d="M521 292h220v239h-220v-239zM789 199h-48v47h-220v-54h-47v339h-217v-477h658v-47h-658v-80h-48v604h-154v46h154v231h48v-231h217v253h47v-253h220v240h48v-240h159v-46h-159v-332z"/>
    <glyph glyph-name="Identity.9862" unicode="世" d="M738 531h-223v-281h223v281zM786 204h-318v327h-209v-485h656v-47h-707v532h-151v46h151v230h51v-230h209v253h47v-253h223v241h48v-241h160v-46h-160v-327z"/>
    <glyph glyph-name="Identity.9868" unicode="业" d="M864 589l45 -21c-50 -109 -120 -244 -180 -334l-39 20c58 90 132 232 174 335zM288 261l-48 -18c-26 84 -89 229 -146 336l45 13c57 -106 121 -247 149 -331zM644 29h292v-48h-869v48h291v792h49v-792h189v790h48v-790z"/>
    <glyph glyph-name="Identity.9870" unicode="东" d="M273 262l47 -13c-49 -104 -124 -206 -199 -274c-8 8 -27 25 -39 32c74 63 147 159 191 255zM866 352h-299v-347c0 -35 -9 -50 -34 -59c-26 -9 -74 -10 -143 -10c-3 15 -12 36 -20 51c62 -2 114 -2 130 -1c15 1 19 5 19 20v346h-230c-63 0 -92 -5 -103 -13 c-3 11 -11 37 -18 51c19 4 41 35 71 80c18 26 60 96 106 181h-261v46h284c23 45 44 92 62 139l47 -25c-17 -39 -34 -76 -53 -114h482v-46h-505c-48 -92 -100 -179 -152 -252h270v157h48v-157h300zM667 242l39 22c82 -77 177 -184 221 -253l-42 -26c-42 70 -136 179 -218 257 z"/>
    <glyph glyph-name="Identity.9888" d="M496 780c-83 -127 -261 -295 -443 -404c-6 11 -19 27 -30 38c183 108 363 278 446 416h47c108 -149 302 -313 466 -404c-12 -11 -24 -28 -33 -42c-164 98 -356 262 -453 396zM472 510h49v-583h-49v583z"/>
    <glyph glyph-name="Identity.9889" unicode="个" d="M476 -73v629h48v-629h-48zM511 833l42 -20c-7 -13 -16 -27 -26 -41c112 -152 255 -259 433 -351c-13 -9 -27 -27 -35 -41c-172 95 -309 201 -425 355c-106 -144 -261 -274 -420 -354c-9 13 -22 31 -36 41c188 88 367 245 467 411z"/>
    <glyph glyph-name="Identity.9893" unicode="中" d="M522 309h323v295h-323v-295zM150 309h323v295h-323v-295zM522 651h372v-450h-49v61h-323v-334h-49v334h-323v-66h-47v455h370v181h49v-181z"/>
    <glyph glyph-name="Identity.9913" unicode="为" d="M333 658l-42 -24c-22 40 -70 104 -112 150l40 20c42 -44 91 -106 114 -146zM891 589v-28c-17 -409 -31 -549 -71 -593c-19 -22 -39 -29 -72 -31c-33 -1 -97 1 -159 5c0 15 -6 34 -16 49c70 -7 137 -7 159 -7c23 -1 35 2 44 14c33 32 50 170 65 543h-375 c-22 -197 -101 -424 -369 -603c-8 12 -25 26 -37 34c257 171 335 383 358 569h-329v48h333c4 47 5 92 5 134v108h48v-108c0 -42 -1 -87 -4 -134h420zM698 204l-41 -25c-28 54 -92 139 -149 201l39 21c58 -61 123 -143 151 -197z"/>
    <glyph glyph-name="Identity.9914" unicode="主" d="M609 659l-40 -28c-35 47 -113 119 -177 169l37 26c66 -48 143 -119 180 -167zM525 10h419v-48h-883v48h414v276h-323v47h323v247h-366v47h784v-47h-368v-247h330v-47h-330v-276z"/>
    <glyph glyph-name="Identity.9929" unicode="久" d="M633 667l32 -16c-22 -91 -52 -174 -89 -250c70 -191 211 -360 383 -433c-11 -10 -27 -28 -34 -41c-165 76 -298 233 -377 421c-114 -204 -280 -343 -458 -426c-8 13 -24 34 -36 41c246 108 461 322 549 654h-290c-62 -122 -141 -227 -229 -306c-9 9 -29 26 -42 34 c136 112 244 291 309 488l50 -12c-19 -54 -41 -107 -64 -157h285z"/>
    <glyph glyph-name="Identity.9933" d="M444 826l49 -18c-94 -154 -246 -322 -399 -433c-8 10 -24 26 -35 36c150 105 303 270 385 415zM926 -34l-44 -30c-14 27 -33 57 -55 90c-257 -19 -526 -37 -703 -47l-7 51c33 1 69 3 109 5c113 146 261 377 348 547l50 -21c-93 -167 -227 -378 -338 -523 c150 8 332 20 510 31c-53 72 -120 148 -184 208l42 24c109 -100 222 -240 272 -335z"/>
    <glyph glyph-name="Identity.9934" unicode="么" d="M457 818l48 -19c-98 -151 -251 -318 -398 -432c-9 10 -24 26 -35 35c145 107 300 274 385 416zM935 -38l-43 -26c-18 32 -41 72 -69 113c-614 -53 -663 -56 -695 -67c-4 12 -14 36 -21 50c27 6 73 44 132 99c63 55 270 265 424 477l49 -23c-161 -211 -334 -402 -501 -541 l582 49c-49 69 -106 142 -159 202l41 21c99 -110 210 -258 260 -354z"/>
    <glyph glyph-name="Identity.9935" d="M585 504l-32 -28c-32 51 -100 127 -162 181l32 25c63 -53 132 -128 162 -178zM766 758l48 -11c-60 -239 -143 -418 -270 -554c106 -104 240 -180 405 -224c-11 -10 -24 -28 -32 -41c-167 47 -300 124 -408 229c-104 -100 -235 -174 -404 -232c-6 12 -22 31 -33 42 c170 53 301 127 405 225c-128 138 -215 319 -275 537l46 11c54 -205 139 -380 263 -513c121 131 200 304 255 531z"/>
    <glyph glyph-name="Identity.9936" unicode="义" d="M569 600l-42 -20c-18 65 -60 165 -96 239l40 18c37 -75 79 -173 98 -237zM800 759l48 -16c-72 -202 -171 -377 -312 -520c119 -113 259 -202 416 -255c-11 -10 -25 -28 -33 -42c-159 57 -299 147 -419 263c-114 -107 -255 -194 -430 -259c-5 12 -17 29 -27 39 c172 62 312 147 425 253c-132 137 -237 306 -311 493l43 13c69 -176 172 -339 303 -472c137 139 232 310 297 503z"/>
    <glyph glyph-name="Identity.9938" d="M857 631l35 -23c-118 -188 -346 -412 -548 -541c88 -61 209 -76 356 -76c26 0 218 0 256 1c-8 -11 -18 -34 -20 -48h-238c-232 0 -391 36 -484 205c-37 -72 -83 -152 -130 -220l-45 25c70 91 146 233 188 338l45 -19c-9 -22 -21 -48 -34 -74c19 -41 42 -74 70 -101 c185 113 393 318 505 482h-711v47h372v204h49v-204h324z"/>
    <glyph glyph-name="Identity.9939" unicode="之" d="M577 669l-45 -23c-19 43 -64 114 -103 167l41 20c40 -52 87 -121 107 -164zM811 631l35 -24c-120 -181 -354 -398 -560 -518c12 -10 27 -21 44 -32c63 -40 145 -47 256 -47c126 0 272 7 369 16c-6 -13 -14 -40 -15 -54c-76 -5 -260 -10 -354 -10c-121 0 -205 10 -270 53 c-38 25 -70 58 -91 58c-33 0 -81 -53 -133 -121l-37 43c63 69 122 124 171 124c5 0 11 -1 17 -3c191 107 407 305 523 464h-659v47h694z"/>
    <glyph glyph-name="Identity.9945" unicode="乐" d="M250 275l46 -16c-57 -96 -139 -199 -212 -268c-8 8 -27 25 -38 33c72 64 152 160 204 251zM922 378h-379v-382c0 -37 -10 -51 -36 -60c-27 -9 -74 -9 -160 -9c-3 13 -10 33 -18 47c68 -2 126 -1 143 0c16 0 23 5 23 22v382h-250c-72 0 -103 -4 -114 -12 c-2 11 -11 36 -16 48c12 3 19 28 28 63c9 32 37 160 39 273c222 7 508 26 649 68l32 -41c-149 -43 -415 -63 -633 -69c-9 -98 -28 -202 -50 -282h315v217h48v-217h379v-48zM700 252l40 21c77 -77 170 -186 215 -252l-44 -25c-43 66 -134 177 -211 256z"/>
    <glyph glyph-name="Identity.9970" unicode="也" d="M394 -8h383c96 0 110 38 123 189c13 -9 32 -17 46 -20c-14 -161 -36 -214 -173 -214h-373c-132 0 -174 27 -174 138v341l-176 -54l-13 43l189 57v293h47v-279l239 74v271h47v-257l260 79l5 5l11 8l34 -16l-3 -10c-3 -187 -13 -313 -35 -371c-19 -49 -46 -64 -79 -67 c-30 -2 -79 -3 -114 -1c-1 13 -6 33 -13 46c39 -3 91 -3 109 -3c24 0 42 6 57 48c18 49 25 156 27 315l-259 -80v-393h-47v379l-239 -73v-358c0 -70 23 -90 121 -90z"/>
    <glyph glyph-name="Identity.9971" d="M394 -9h382c96 0 111 38 124 189c13 -10 32 -18 46 -21c-14 -161 -36 -213 -174 -213h-372c-132 0 -174 26 -174 138v342l-176 -54l-13 42l189 58v293h47v-279l238 73v272h48v-257l260 79l16 14l35 -12l-2 -9c-6 -139 -18 -318 -37 -426l-40 12c14 93 24 248 29 375 l-261 -80v-393h-48v378l-238 -72v-359c0 -70 23 -90 121 -90z"/>
    <glyph glyph-name="Identity.9972" unicode="习" d="M715 319l9 -45c-211 -73 -442 -151 -594 -202l-17 49c143 45 381 124 602 198zM239 572l32 31c95 -62 216 -150 277 -206l-35 -38c-58 58 -179 149 -274 213zM876 751v-30c-7 -536 -15 -703 -51 -751c-19 -25 -38 -34 -70 -36c-35 -2 -95 0 -149 3c-1 15 -6 34 -15 47 c67 -5 127 -5 151 -5c17 -1 29 2 39 15c30 35 41 214 48 712h-703v45h750z"/>
    <glyph glyph-name="Identity.9980" unicode="书" d="M943 659l-31 -36c-38 38 -115 98 -177 140l30 31c60 -40 139 -99 178 -135zM486 606v-222h258v222h-258zM791 384h145s-1 -17 -2 -25c-16 -200 -30 -276 -58 -303c-16 -17 -35 -22 -65 -23c-29 -2 -88 0 -148 3c-2 15 -8 33 -17 47c65 -7 129 -7 150 -7s31 1 41 9 c21 19 34 87 47 253h-398v-412h-48v412h-374v46h374v222h-302v47h302v176h48v-176h305v-269z"/>
    <glyph glyph-name="Identity.9992" unicode="买" d="M803 534l-38 20c27 41 58 102 83 160h-730v46h744v1h10l10 3l33 -14c-34 -76 -73 -162 -112 -216zM453 532l-27 -37c-41 35 -123 82 -193 111l26 33c68 -28 151 -73 194 -107zM126 457l26 33c69 -26 155 -69 198 -103l-26 -37c-43 35 -127 80 -198 107zM537 139l26 33 c134 -61 272 -141 358 -205l-32 -36c-84 65 -218 144 -352 208zM546 286h385v-46h-398c-53 -162 -171 -263 -443 -317c-5 13 -18 32 -26 43c253 46 367 133 419 274h-412v46h427c24 95 29 211 33 352h48c-4 -138 -10 -255 -33 -352z"/>
    <glyph glyph-name="Identity.10026" d="M839 753l37 -26c-87 -102 -230 -212 -352 -278v-450c0 -40 -12 -57 -45 -64c-32 -9 -95 -8 -200 -8c-3 13 -12 33 -20 48c90 -3 166 -3 188 -1c22 1 28 7 28 25v495h39c96 54 201 137 271 209h-687v47h730z"/>
    <glyph glyph-name="Identity.10027" unicode="了" d="M843 752l37 -26c-88 -97 -230 -199 -353 -264v-462c0 -40 -12 -56 -44 -64c-32 -9 -95 -9 -201 -9c-3 15 -12 34 -20 49c92 -3 165 -2 188 -1c21 1 28 7 28 25v486c106 51 229 139 308 216h-686v47h732z"/>
    <glyph glyph-name="Identity.10034" unicode="事" d="M797 123v92h-276v-92h276zM521 343v-86h276v86h-276zM225 507h248v86h-248v-86zM782 593h-261v-86h261v86zM948 257v-42h-104v-178h-47v46h-276v-89c0 -40 -12 -54 -38 -62c-28 -8 -79 -8 -162 -8c-3 12 -11 31 -18 44c67 -2 129 -1 145 0c19 1 25 6 25 25v90h-335v40 h335v92h-417v42h417v86h-325v40h325v86h-295v163h295v70h-400v42h400v88h48v-88h410v-42h-410v-70h309v-163h-309v-86h323v-126h104z"/>
    <glyph glyph-name="Identity.10035" unicode="二" d="M145 687h711v-50h-711v50zM59 87h883v-51h-883v51z"/>
    <glyph glyph-name="Identity.10037" unicode="于" d="M942 427v-47h-409v-370c0 -44 -14 -60 -45 -69s-92 -10 -196 -9c-4 14 -13 35 -21 50c87 -2 162 -2 183 -1s30 7 30 28v371h-425v47h425v283h-356v47h744v-47h-339v-283h409z"/>
    <glyph glyph-name="Identity.10042" d="M836 751v-49h-668v49h668zM940 397h-496c-45 -113 -108 -258 -163 -359c157 4 345 11 527 18c-50 71 -112 147 -170 209l42 21c101 -102 207 -242 255 -334l-46 -27c-13 26 -31 56 -51 87c-281 -13 -576 -24 -769 -30l-5 50c48 1 103 2 164 4c53 97 118 247 156 361h-322 v48h878v-48z"/>
    <glyph glyph-name="Identity.10043" unicode="云" d="M836 745v-49h-668v49h668zM940 413h-482c-72 -139 -158 -278 -243 -384l561 49c-46 69 -98 144 -144 206l42 21c86 -112 191 -260 239 -354l-45 -26c-16 30 -38 68 -63 108c-576 -52 -625 -56 -659 -70c-3 12 -11 39 -18 54c19 4 44 34 74 78c31 38 125 177 192 318h-332 v48h878v-48z"/>
    <glyph glyph-name="Identity.10044" d="M276 256h398c11 85 20 173 28 250h-373c-18 -87 -36 -175 -53 -250zM690 19h254v-46h-886v46h582c9 53 19 120 28 192h-403c-4 -19 -9 -37 -13 -54l-50 6c37 137 89 381 119 554h-229v46h822v-46h-543c-10 -51 -21 -108 -33 -166h418c-17 -165 -44 -396 -66 -532z"/>
    <glyph glyph-name="Identity.10045" unicode="互" d="M272 243h404c11 93 22 184 29 250h-384c-17 -90 -34 -179 -49 -250zM693 16h251v-47h-886v47h587c8 55 17 118 25 181h-461c32 130 76 357 100 521h-216v47h821v-47h-553c-10 -55 -21 -116 -31 -179h385l9 3l34 -5c-13 -130 -39 -355 -65 -521z"/>
    <glyph glyph-name="Identity.10049" unicode="井" d="M342 306h315v263h-310v-132c0 -45 -1 -89 -5 -131zM934 306v-47h-228v-332h-49v332h-321c-20 -132 -76 -250 -220 -343c-8 10 -27 26 -38 34c134 86 188 190 208 309h-218v47h224c5 42 6 85 6 131v132h-196v48h196v211h49v-211h310v211h49v-211h206v-48h-206v-263h228z "/>
    <glyph glyph-name="Identity.10056" unicode="些" d="M851 341h-189c-82 0 -106 18 -106 87v404h48v-211c92 32 191 74 247 112l41 -36c-76 -43 -187 -87 -288 -121v-149c0 -32 9 -40 59 -40h186c44 0 51 22 56 138c11 -9 30 -17 45 -21c-7 -128 -22 -163 -99 -163zM174 177v47h667v-47h-667zM500 417l1 -45 c-161 -22 -330 -45 -445 -60l-7 48l72 8v351h46v-345l107 13v445h48v-183h172v-45h-172v-210zM63 -46v47h875v-47h-875z"/>
    <glyph glyph-name="Identity.10057" d="M855 341h-193c-82 0 -105 18 -105 86v405h47v-184h279v-45h-279v-177c0 -31 9 -39 60 -39h188c41 0 48 19 52 120c12 -9 31 -16 45 -19c-7 -115 -22 -147 -94 -147zM174 177v47h667v-47h-667zM501 417l2 -45c-162 -22 -331 -45 -447 -60l-7 48l72 8v351h46v-345l107 13 v445h48v-183h174v-45h-174v-210zM63 -46v47h875v-47h-875z"/>
    <glyph glyph-name="Identity.10075" d="M935 694v-47h-869v47h408v140h49v-140h412zM630 573l40 30c98 -65 215 -160 272 -227l-41 -34c-55 67 -171 165 -271 231zM332 603l47 -18c-69 -97 -181 -191 -279 -252c-8 10 -26 30 -38 40c100 54 207 140 270 230zM660 432l50 -14c-41 -108 -98 -195 -172 -266 c108 -89 249 -150 420 -179c-11 -11 -26 -32 -33 -46c-173 33 -314 97 -424 192c-111 -92 -254 -153 -423 -196c-5 12 -21 34 -31 46c170 37 311 94 418 183c-71 71 -126 158 -166 259l45 15c36 -94 89 -175 158 -241c69 66 122 147 158 247z"/>
    <glyph glyph-name="Identity.10076" unicode="交" d="M547 714l-46 -18c-13 34 -44 88 -73 129l45 16c28 -39 60 -93 74 -127zM925 688v-47h-852v47h852zM630 568l38 26c94 -62 206 -154 260 -219l-40 -31c-52 65 -162 159 -258 224zM332 596l45 -18c-67 -85 -171 -173 -257 -231c-9 9 -27 28 -38 37c88 53 188 134 250 212z M663 429l48 -14c-40 -107 -98 -193 -171 -263c107 -86 246 -145 415 -173c-11 -11 -24 -30 -31 -45c-170 33 -310 95 -420 186c-112 -92 -254 -153 -425 -196c-5 11 -19 33 -30 45c171 37 312 94 420 183c-74 71 -131 156 -172 257l44 15c37 -94 92 -174 163 -241 c69 66 123 146 159 246z"/>
    <glyph glyph-name="Identity.10081" unicode="产" d="M893 702v-46h-778v46h395c-14 34 -44 80 -71 115l44 15c32 -38 65 -89 80 -122l-20 -8h350zM404 492l-42 -19c-16 40 -54 103 -88 148l40 16c35 -44 74 -105 90 -145zM922 457v-47h-740v-88c0 -116 -16 -282 -100 -400c-8 9 -28 26 -39 31c79 113 91 262 91 370v134h476 c31 48 68 124 87 176l50 -17c-26 -52 -59 -114 -90 -159h265z"/>
    <glyph glyph-name="Identity.10086" d="M933 738v-43h-867v43h408v96h49v-96h410zM246 579v-110h512v110h-512zM807 429h-609v191h609v-191zM943 171v-44h-419v-143c0 -32 -9 -46 -37 -53s-81 -6 -171 -6c-3 11 -11 28 -18 40c75 -2 136 -1 154 0s23 5 23 19v143h-416v44h416v69h33c75 18 157 45 220 74h-578v42 h650l12 3l34 -28c-84 -52 -212 -97 -322 -124v-36h419z"/>
    <glyph glyph-name="Identity.10087" unicode="享" d="M933 738v-43h-867v43h425c-12 29 -30 64 -46 91l47 11c18 -31 40 -72 53 -102h388zM246 579v-111h512v111h-512zM807 429h-609v190h609v-190zM943 170v-44h-419v-143c0 -32 -9 -45 -36 -52c-29 -8 -82 -7 -172 -7c-3 13 -11 28 -18 41c75 -2 137 -2 154 -1 c18 1 23 5 23 19v143h-416v44h416v70c82 15 176 43 248 73h-573v42h650l12 3l35 -28c-86 -50 -211 -91 -323 -117v-43h419z"/>
    <glyph glyph-name="Identity.10088" d="M933 706v-46h-863v46h404v128h49v-128h410zM248 205l49 -16c-46 -78 -124 -167 -202 -223c-9 9 -26 22 -37 28c75 54 152 138 190 211zM246 511v-192h518v192h-518zM813 275h-290v-284c0 -33 -9 -49 -38 -56c-29 -8 -84 -8 -176 -7c-4 12 -11 31 -18 44 c79 -2 140 -1 160 0c19 1 23 6 23 19v284h-276v280h615v-280zM696 181l43 22c69 -67 154 -160 195 -218l-45 -25c-39 58 -122 154 -193 221z"/>
    <glyph glyph-name="Identity.10089" unicode="京" d="M250 203l47 -16c-49 -78 -127 -166 -201 -224c-9 9 -25 23 -36 30c71 54 151 140 190 210zM246 510v-191h518v191h-518zM813 275h-286v-284c0 -35 -9 -49 -37 -57c-30 -9 -84 -9 -177 -8c-3 14 -11 31 -18 45c79 -2 141 -1 160 0c18 1 23 5 23 20v284h-280v279h615v-279z M696 179l38 24c69 -67 154 -159 195 -216l-41 -29c-39 57 -122 153 -192 221zM549 702h385v-48h-864v48h424c-19 37 -46 85 -73 122l45 14c31 -41 65 -97 83 -136z"/>
    <glyph glyph-name="Identity.10114" d="M519 798l-2 -36c8 -122 63 -613 448 -786c-13 -10 -29 -27 -37 -40c-283 132 -390 432 -431 638c-35 -211 -133 -494 -418 -638c-8 12 -24 27 -37 37c411 199 419 692 426 825h51z"/>
    <glyph glyph-name="Identity.10115" unicode="人" d="M478 828h51c-1 -32 -1 -80 -6 -137c14 -100 73 -557 433 -717c-13 -10 -27 -26 -35 -39c-275 126 -376 420 -418 607c-39 -213 -142 -473 -413 -610c-9 12 -25 26 -37 35c421 206 423 718 425 861z"/>
    <glyph glyph-name="Identity.10121" unicode="亿" d="M300 831l45 -14c-26 -69 -60 -136 -96 -200v-688h-47v612c-41 -63 -85 -119 -131 -166c-6 11 -21 34 -31 44c103 100 200 254 260 412zM520 28l289 -1c54 0 64 35 70 211c11 -8 31 -15 44 -17c-9 -206 -29 -240 -115 -240h-283c-101 0 -148 35 -148 96 c0 55 20 125 436 594h-420v46h470l12 2l31 -16c-3 -4 -5 -6 -9 -9c-447 -498 -473 -569 -473 -614c0 -37 40 -52 96 -52z"/>
    <glyph glyph-name="Identity.10122" unicode="什" d="M312 829l45 -13c-29 -74 -66 -147 -106 -215v-673h-47v599c-41 -60 -84 -115 -129 -161c-6 11 -21 34 -31 44c106 102 206 258 268 419zM950 479v-47h-283v-505h-49v505h-293v47h293v346h49v-346h283z"/>
    <glyph glyph-name="Identity.10128" d="M312 826l47 -14c-32 -77 -71 -153 -114 -222v-661h-47v589c-42 -59 -87 -112 -133 -157c-5 11 -21 34 -32 44c111 101 215 258 279 421zM867 723l31 -12c-41 -219 -123 -393 -229 -525c78 -97 175 -173 294 -218c-10 -8 -26 -27 -33 -40c-119 48 -215 124 -292 221 c-90 -101 -194 -175 -303 -222c-6 13 -19 31 -30 40c109 44 213 118 303 221c-90 126 -151 284 -193 465l45 9c38 -166 96 -315 180 -436c91 118 164 268 203 448h-476v46h491z"/>
    <glyph glyph-name="Identity.10129" unicode="仅" d="M312 826l47 -14c-32 -77 -71 -153 -114 -222v-661h-47v589c-42 -59 -87 -112 -133 -157c-5 11 -21 34 -32 44c111 101 215 258 279 421zM843 674h-391c38 -173 99 -328 186 -451c92 117 166 268 205 451zM867 723l31 -11c-41 -222 -125 -397 -232 -527 c78 -97 175 -172 294 -217c-11 -9 -24 -26 -33 -39c-118 48 -214 124 -291 221c-92 -103 -200 -176 -313 -223c-5 13 -19 31 -28 40c113 43 220 116 313 220c-94 131 -159 297 -202 487h-48v46h499z"/>
    <glyph glyph-name="Identity.10143" d="M291 830l44 -14c-29 -74 -65 -146 -106 -213v-674h-47v601c-40 -57 -83 -109 -126 -152c-6 10 -22 34 -30 45c105 98 204 250 265 407zM770 493h173s0 -19 -1 -26c-19 -346 -36 -471 -73 -510c-18 -20 -36 -25 -69 -27c-31 -1 -91 0 -154 4c-2 14 -7 34 -16 47 c69 -6 133 -7 155 -7c20 0 33 1 43 12c32 31 49 147 66 462h-128l-8 -72l-47 3c11 84 25 223 33 335h-221c-5 -270 -26 -615 -220 -789c-9 10 -26 22 -38 30c188 164 206 502 210 759h-132v45h451c-6 -81 -15 -180 -24 -266z"/>
    <glyph glyph-name="Identity.10144" unicode="仍" d="M242 826l45 -12c-22 -70 -49 -138 -80 -202v-686h-46v598c-31 -55 -65 -104 -99 -146c-5 11 -20 33 -29 45c85 99 162 250 209 403zM730 466h180s0 -20 -1 -26c-18 -325 -33 -442 -70 -480c-16 -19 -35 -25 -67 -27c-31 -1 -91 0 -153 5c-2 14 -7 33 -16 46 c68 -6 131 -7 154 -7c20 0 32 2 42 13c30 28 46 137 62 430h-189c19 75 43 194 60 293h-232c-5 -270 -25 -614 -219 -789c-9 10 -27 23 -39 31c188 163 206 501 211 758h-133v45h467c-16 -90 -39 -207 -57 -292z"/>
    <glyph glyph-name="Identity.10145" d="M477 188l-38 -35c-31 62 -93 151 -155 227c-34 -187 -91 -338 -195 -454c-8 8 -33 24 -45 32c173 177 216 470 235 843l50 -2c-8 -131 -18 -250 -34 -359c70 -80 146 -185 182 -252zM628 800h49c-1 -39 -2 -84 -4 -133c25 -249 87 -548 290 -697c-12 -10 -29 -31 -38 -43 c-162 130 -234 349 -270 556c-31 -206 -109 -430 -307 -556c-10 10 -26 23 -40 33c309 189 316 627 320 840z"/>
    <glyph glyph-name="Identity.10146" unicode="从" d="M502 195l-37 -33c-34 74 -104 182 -170 273c-32 -211 -89 -381 -197 -509c-8 8 -33 25 -45 32c167 181 207 475 226 847l51 -3c-6 -109 -14 -210 -26 -304c75 -95 161 -221 198 -303zM660 807l51 -3c-9 -120 -20 -231 -37 -331c34 -170 115 -388 274 -496 c-9 -9 -26 -28 -34 -41c-139 104 -218 284 -260 439c-43 -186 -113 -333 -238 -444c-9 8 -32 24 -45 32c208 171 264 456 289 844z"/>
    <glyph glyph-name="Identity.10157" unicode="他" d="M283 829l44 -13c-30 -76 -66 -149 -107 -218v-670h-47v597c-38 -56 -79 -107 -121 -150c-4 10 -20 32 -29 42c103 100 200 255 260 412zM538 -17h289c63 0 73 30 82 150c12 -9 31 -18 46 -21c-11 -131 -27 -173 -129 -173h-286c-106 0 -138 22 -138 117v354l-111 -43 l-18 43l129 50v280h47v-262l177 68v286h46v-268l187 73l8 6l10 9l33 -14l-3 -10c0 -186 -3 -343 -15 -386c-9 -42 -32 -58 -61 -61c-26 -4 -68 -4 -95 -3c-2 15 -7 33 -14 45c32 -2 72 -1 86 -1c20 0 32 5 40 34c10 34 14 165 14 332l-190 -73v-374h-46v355l-177 -68v-373 c0 -56 16 -72 89 -72z"/>
    <glyph glyph-name="Identity.10158" d="M283 829l45 -13c-31 -77 -68 -152 -109 -222v-666h-46v595c-38 -56 -78 -107 -121 -149c-4 10 -20 33 -29 43c103 100 200 255 260 412zM539 -20h290c64 0 74 30 82 150c13 -9 31 -17 46 -20c-11 -132 -27 -174 -129 -174h-286c-106 0 -138 22 -138 117v358l-113 -44 l-18 43l131 51v278h46v-260l176 67v286h45v-268l189 73l14 12l36 -11l-3 -10c-1 -146 -9 -339 -23 -455l-41 12c10 101 16 268 17 403l-189 -73v-374h-45v356l-176 -68v-377c0 -56 16 -72 89 -72z"/>
    <glyph glyph-name="Identity.10160" unicode="付" d="M312 826l46 -14c-31 -80 -69 -157 -112 -229v-654h-48v580c-38 -55 -78 -105 -121 -147c-5 11 -21 33 -31 44c106 102 205 258 266 420zM944 607v-48h-135v-555c0 -47 -15 -63 -47 -71c-32 -9 -96 -9 -203 -8c-4 13 -13 34 -21 49c90 -3 169 -3 192 -2c23 2 31 8 31 31 v556h-419v48h419v214h48v-214h135zM614 185l-43 -27c-33 64 -101 175 -156 256l41 20c56 -81 125 -189 158 -249z"/>
    <glyph glyph-name="Identity.10175" unicode="代" d="M926 642l-37 -26c-37 44 -112 115 -176 164l33 23c65 -48 141 -115 180 -161zM331 821l45 -15c-33 -73 -72 -145 -116 -212v-666h-49v598c-48 -63 -99 -120 -152 -166c-5 10 -20 34 -30 43c119 99 233 255 302 418zM947 518l-313 -38c38 -289 112 -489 235 -499 c32 -1 50 62 62 182c11 -9 30 -19 41 -23c-20 -161 -51 -216 -101 -214c-163 10 -243 231 -284 548l-265 -32l-7 45l268 32c-10 93 -18 194 -23 300h48c4 -104 11 -203 21 -294l310 37z"/>
    <glyph glyph-name="Identity.10176" d="M832 347v-287c0 -29 -7 -44 -32 -53c-26 -8 -73 -8 -151 -8c-2 14 -11 32 -18 45c64 -2 118 -2 133 -1s20 5 20 18v240h-320v-374h-48v374h-283v46h699zM288 533h426v-45h-426v45zM470 833h46c106 -141 289 -289 445 -368c-12 -11 -25 -29 -33 -41 c-156 86 -336 233 -432 361c-82 -121 -250 -271 -422 -369c-6 10 -20 27 -31 38c174 94 346 248 427 379z"/>
    <glyph glyph-name="Identity.10177" unicode="令" d="M801 373l36 -23c-76 -77 -189 -194 -287 -290c46 -35 87 -70 115 -99l-37 -38c-65 67 -198 171 -307 241l36 33c49 -32 102 -69 153 -107c81 76 171 166 235 232h-571v47h619zM601 443l-36 -29c-31 46 -100 113 -158 159l35 26c59 -45 128 -110 159 -156zM512 834l43 -23 c-7 -11 -16 -23 -25 -33c105 -119 290 -245 434 -304c-12 -10 -27 -30 -35 -42c-139 63 -317 189 -427 311c-111 -125 -268 -241 -424 -312c-8 11 -21 26 -34 37c183 80 365 222 468 366z"/>
    <glyph glyph-name="Identity.10178" d="M792 391l9 4l35 -23c-78 -81 -199 -202 -302 -301c47 -38 89 -74 118 -103l-36 -38c-65 68 -199 174 -309 245l34 32c49 -31 103 -68 153 -106c86 80 183 175 250 244h-567v46h615zM311 537h362v-46h-362v46zM491 836l42 -22c-6 -8 -10 -15 -16 -23 c104 -122 288 -252 432 -312c-11 -11 -27 -30 -35 -43c-139 65 -315 194 -426 320c-105 -126 -257 -244 -407 -317c-8 11 -22 27 -34 37c173 80 347 222 444 360z"/>
    <glyph glyph-name="Identity.10179" d="M574 467l-45 -24c-25 68 -91 169 -155 242l41 20c66 -73 132 -171 159 -238zM456 262l11 -46c-142 -65 -297 -135 -406 -183l-18 48c39 16 87 37 140 60l-14 642l48 2l13 -623c72 31 150 66 226 100zM964 -34l-41 -35c-51 72 -155 186 -246 279 c-80 -127 -195 -218 -366 -286c-8 10 -27 30 -39 40c361 129 468 373 517 821l51 -5c-26 -222 -65 -393 -138 -528c94 -92 206 -212 262 -286z"/>
    <glyph glyph-name="Identity.10180" unicode="以" d="M581 509l-43 -25c-29 66 -95 167 -154 240l41 21c60 -73 126 -172 156 -236zM221 133l256 114c3 -12 10 -33 13 -43c-290 -131 -321 -148 -344 -167c-4 11 -18 31 -27 41c18 10 52 35 52 77v595h50v-617zM772 796l50 -3c-15 -243 -42 -426 -111 -568 c91 -83 194 -193 244 -266l-41 -31c-44 68 -137 173 -224 256c-66 -115 -164 -200 -312 -265c-6 11 -24 32 -35 42c332 129 404 378 429 835z"/>
    <glyph glyph-name="Identity.10188" unicode="们" d="M239 826l45 -12c-21 -74 -47 -146 -76 -214v-673h-46v575c-27 -52 -57 -100 -87 -141c-6 10 -21 33 -31 45c82 104 152 262 195 420zM352 -74v717h47v-717h-47zM394 813l38 18c45 -60 96 -143 118 -193l-41 -22c-22 51 -72 135 -115 197zM914 794v-794 c0 -37 -11 -54 -36 -62c-27 -9 -77 -9 -155 -9c-2 13 -10 34 -18 48c65 -2 122 -1 138 0c17 1 23 6 23 24v748h-288v45h336z"/>
    <glyph glyph-name="Identity.10206" d="M281 829l46 -13c-30 -76 -67 -151 -108 -220v-667h-46v596c-39 -57 -80 -107 -122 -150c-5 9 -20 33 -29 43c103 100 200 254 259 411zM452 334v142h47v-143c0 -116 -16 -290 -179 -414c-8 10 -22 25 -35 33c157 112 167 277 167 382zM738 -65v542h48v-542h-48zM583 815 h47c80 -136 219 -273 340 -347c-9 -11 -21 -29 -29 -42c-123 83 -258 217 -331 340c-64 -118 -188 -257 -323 -346c-6 11 -18 28 -29 38c134 86 265 229 325 357z"/>
    <glyph glyph-name="Identity.10207" unicode="价" d="M283 832l46 -12c-28 -76 -61 -152 -99 -221v-672h-48v590c-33 -52 -68 -99 -104 -140c-6 10 -20 33 -30 44c95 100 182 255 235 411zM448 317v136h48v-136c0 -114 -16 -278 -179 -398c-8 11 -23 26 -35 34c155 106 166 264 166 364zM736 -71v525h48v-525h-48zM608 835 l51 -9c-7 -15 -15 -30 -23 -46c76 -124 210 -252 326 -313c-10 -10 -25 -27 -34 -39c-109 65 -236 187 -316 310c-69 -115 -175 -235 -319 -324c-7 11 -21 27 -32 35c176 105 294 261 347 386z"/>
    <glyph glyph-name="Identity.10211" unicode="任" d="M312 834l46 -14c-32 -74 -70 -148 -112 -215v-679h-48v607c-44 -61 -91 -116 -139 -162c-5 9 -22 33 -32 44c113 101 220 257 285 419zM956 354h-301v-340h282v-46h-604v46h274v340h-311v46h311v290c-86 -16 -178 -28 -261 -39c-2 12 -9 29 -15 40c190 27 417 67 539 111 l36 -40c-68 -24 -156 -44 -251 -63v-299h301v-46z"/>
    <glyph glyph-name="Identity.10212" d="M312 826l46 -14c-32 -75 -70 -148 -113 -217v-666h-47v595c-44 -60 -91 -116 -139 -162c-6 11 -22 33 -33 44c113 101 220 258 286 420zM955 352h-293v-338h270v-46h-589v46h271v338h-304v47h304v291h-230v46h528v-46h-250v-291h293v-47z"/>
    <glyph glyph-name="Identity.10252" d="M501 130l-36 -37c-37 45 -108 114 -174 169c-41 -143 -105 -253 -205 -334c-8 8 -31 24 -43 31c144 107 211 281 239 514l50 -5c-7 -56 -16 -108 -28 -157c75 -58 157 -132 197 -181zM657 473l50 -7c-4 -30 -9 -59 -15 -87c35 -148 112 -324 269 -409 c-12 -11 -27 -30 -35 -42c-135 82 -213 230 -255 363c-44 -160 -116 -280 -229 -365c-9 9 -30 25 -42 32c153 105 226 277 257 515zM468 830h50c104 -143 288 -285 446 -358c-12 -11 -25 -30 -33 -44c-158 81 -339 222 -435 353c-82 -121 -251 -269 -425 -360 c-6 10 -19 28 -30 39c176 89 346 239 427 370z"/>
    <glyph glyph-name="Identity.10253" unicode="众" d="M514 127l-35 -35c-38 46 -109 116 -177 172c-41 -141 -106 -250 -204 -330c-9 8 -30 22 -42 30c144 107 211 281 239 515l49 -5c-8 -59 -17 -114 -30 -164c74 -59 160 -134 200 -183zM655 472l48 -5c-5 -45 -11 -88 -18 -129c37 -128 118 -288 262 -365 c-11 -9 -25 -27 -33 -40c-125 73 -203 208 -246 324c-38 -144 -99 -252 -199 -332c-8 8 -29 24 -41 32c146 104 204 276 227 515zM503 835l46 -19c-8 -16 -17 -32 -26 -49c87 -127 260 -247 432 -293c-12 -11 -27 -31 -35 -45c-164 51 -326 169 -421 303 c-94 -137 -240 -245 -412 -306c-9 12 -21 32 -34 43c202 65 370 197 450 366z"/>
    <glyph glyph-name="Identity.10254" d="M906 669l-34 -27c-31 40 -96 100 -153 141l32 25c58 -40 124 -97 155 -139zM275 825l46 -13c-25 -70 -57 -141 -91 -206v-678h-47v593c-35 -58 -74 -112 -113 -158c-7 10 -22 31 -33 41c95 104 183 262 238 421zM695 3h163c41 0 47 23 51 153c13 -9 32 -17 45 -21 c-6 -141 -21 -178 -94 -178h-167c-76 0 -98 17 -98 84v289c-36 -172 -113 -314 -278 -402c-8 9 -22 24 -34 32c221 115 277 330 291 585h-268v47h270c3 74 3 152 3 230h48c0 -78 -1 -156 -4 -230h317v-47h-319c-2 -30 -4 -61 -7 -90h28v-414c0 -31 9 -38 53 -38z"/>
    <glyph glyph-name="Identity.10255" unicode="优" d="M873 656l-34 -28c-29 41 -89 107 -140 153l34 23c50 -45 111 -108 140 -148zM289 831l46 -14c-30 -80 -67 -159 -109 -233v-657h-46v583c-32 -50 -68 -95 -103 -135c-5 11 -20 34 -29 45c96 101 186 254 241 411zM732 1h123c33 0 38 23 42 154c11 -9 30 -17 43 -21 c-5 -140 -18 -178 -82 -178h-130c-65 0 -84 16 -84 80v420h47v-420c0 -28 7 -35 41 -35zM577 592h368v-47h-371c-18 -245 -71 -480 -252 -611c-8 11 -24 24 -35 32c173 122 225 347 240 579h-237v47h240c4 77 5 156 5 230h47c0 -75 -1 -153 -5 -230z"/>
    <glyph glyph-name="Identity.10259" d="M91 282v45h824v-45h-483c-39 -83 -88 -185 -134 -262c139 4 304 10 466 17c-46 54 -100 111 -152 155l39 23c93 -81 194 -190 241 -265l-42 -27c-13 21 -31 46 -51 71c-252 -10 -519 -22 -691 -29l-7 49c42 1 90 2 143 4c45 76 97 183 130 264h-283zM257 519h481v-46 h-481v46zM468 832h47c106 -149 289 -289 447 -359c-11 -10 -23 -28 -32 -41c-158 77 -337 216 -436 353c-81 -125 -249 -267 -421 -357c-6 12 -18 28 -29 39c173 85 343 232 424 365z"/>
    <glyph glyph-name="Identity.10260" unicode="会" d="M91 280v47h824v-47h-450c-72 -98 -150 -191 -230 -266l516 45c-41 49 -88 99 -132 139l40 21c90 -80 186 -190 230 -264l-43 -27c-15 26 -36 56 -60 87c-550 -49 -598 -53 -629 -64c-3 11 -11 38 -17 52c19 3 42 23 73 54c29 26 116 122 187 223h-309zM262 518h481v-45 h-481v45zM509 830l49 -20c-9 -13 -18 -25 -27 -37c88 -100 254 -222 423 -283c-11 -11 -26 -31 -34 -43c-165 66 -327 190 -417 291c-101 -120 -246 -225 -415 -303c-8 12 -24 30 -36 39c199 89 371 218 457 356z"/>
    <glyph glyph-name="Identity.10267" unicode="传" d="M282 829l46 -13c-30 -77 -67 -151 -108 -220v-668h-47v595c-38 -56 -78 -107 -121 -149c-4 10 -20 33 -30 43c104 100 201 255 260 412zM946 475h-410c-15 -51 -30 -98 -43 -139h340l8 3l35 -21c-58 -69 -144 -169 -220 -254c46 -36 87 -72 115 -100l-37 -36 c-53 57 -161 145 -253 204l36 30c33 -22 69 -45 103 -71c60 66 125 142 172 199h-366c18 50 40 115 62 185h-197v46h210c14 47 29 96 42 144h-196v45h208c12 43 23 83 32 121l47 -7c-9 -36 -20 -74 -31 -114h301v-45h-314c-12 -48 -26 -97 -41 -144h397v-46z"/>
    <glyph glyph-name="Identity.10293" d="M842 789l47 -20c-35 -73 -81 -163 -119 -221l-38 17c37 58 85 156 110 224zM492 571l-43 -22c-16 56 -56 147 -96 215l40 16c42 -66 83 -156 99 -209zM291 830l44 -14c-29 -74 -65 -146 -106 -213v-673h-47v600c-40 -57 -83 -109 -126 -152c-6 10 -22 34 -30 45 c105 98 204 250 265 407zM955 265v-45h-316v-292h-48v292h-303v45h303v201h-261v45h261v311h48v-311h274v-45h-274v-201h316z"/>
    <glyph glyph-name="Identity.10294" unicode="伴" d="M803 770l45 -13c-35 -78 -83 -169 -122 -230c-10 7 -30 18 -42 24c43 59 87 144 119 219zM515 549l-42 -22c-26 58 -82 151 -128 220l40 18c47 -68 104 -159 130 -216zM247 826l45 -12c-21 -69 -47 -138 -75 -203v-685h-46v590c-30 -58 -64 -111 -99 -156 c-5 11 -20 35 -28 46c83 104 157 261 203 420zM941 273v-46h-316v-299h-48v299h-301v46h301v173h-259v45h259v342h48v-342h274v-45h-274v-173h316z"/>
    <glyph glyph-name="Identity.10306" d="M709 468l-42 -24c-26 64 -87 165 -144 239l40 19c59 -73 121 -172 146 -234zM281 829l46 -13c-30 -76 -67 -151 -108 -220v-667h-46v596c-39 -57 -80 -107 -122 -150c-5 9 -20 33 -29 43c103 100 200 254 259 411zM637 258l9 -41c-122 -49 -252 -99 -351 -136l-21 49 c31 10 67 22 107 36l-6 610h47l6 -594c66 23 139 50 209 76zM974 -38l-37 -35c-37 60 -110 156 -174 235c-73 -108 -181 -184 -345 -241c-5 11 -22 32 -33 43c377 115 448 347 470 829l50 -2c-13 -261 -41 -449 -118 -589c68 -80 148 -180 187 -240z"/>
    <glyph glyph-name="Identity.10307" unicode="似" d="M668 435l-44 -19c-20 81 -76 211 -133 309l41 15c58 -97 115 -226 136 -305zM247 826l45 -12c-22 -68 -50 -135 -80 -199v-689h-46v601c-35 -62 -74 -119 -115 -167c-5 11 -19 35 -28 45c91 103 173 261 224 421zM416 137l204 140c3 -14 8 -34 11 -44 c-221 -156 -246 -177 -263 -197c-6 12 -21 32 -29 42c11 10 30 35 30 79v607h47v-627zM959 -14l-45 -26c-24 76 -76 197 -129 302c-43 -137 -110 -245 -222 -329c-7 10 -26 29 -37 37c224 155 266 430 280 835l50 -1c-8 -186 -21 -344 -53 -476c62 -112 128 -258 156 -342z "/>
    <glyph glyph-name="Identity.10318" unicode="但" d="M819 485v226h-375v-226h375zM819 209v231h-375v-231h375zM869 757v-594h-473v594h473zM295 829l46 -14c-29 -76 -67 -150 -108 -218v-669h-48v594c-38 -56 -79 -107 -122 -149c-4 11 -20 35 -30 44c104 100 202 255 262 412zM303 17h658v-46h-658v46z"/>
    <glyph glyph-name="Identity.10328" d="M320 627h274v195h48v-195h288v-46h-610v46zM539 89l-47 -10c-8 101 -43 280 -82 416l43 7c40 -136 76 -313 86 -413zM291 830l45 -14c-29 -74 -66 -146 -107 -214v-672h-47v600c-40 -57 -83 -109 -126 -152c-6 11 -22 35 -30 46c105 98 204 249 265 406zM695 23h263v-46 h-665v46h356c50 127 110 342 141 489l51 -10c-38 -150 -95 -350 -146 -479z"/>
    <glyph glyph-name="Identity.10329" unicode="位" d="M675 678l-46 -14c-9 42 -30 108 -48 159l44 13c18 -51 41 -116 50 -158zM907 644v-47h-534v47h534zM565 87l-48 -14c-10 105 -40 294 -74 436l44 9c35 -144 67 -329 78 -431zM303 829l46 -13c-29 -75 -66 -148 -107 -217v-671h-48v595c-38 -56 -78 -107 -121 -149 c-4 10 -20 34 -30 43c104 101 201 255 260 412zM725 15h227v-46h-626v46h353c39 137 82 361 105 514l50 -10c-27 -156 -71 -367 -109 -504z"/>
    <glyph glyph-name="Identity.10340" unicode="体" d="M269 829l45 -12c-26 -77 -59 -153 -95 -223v-666h-46v585c-31 -52 -66 -99 -100 -139c-5 10 -21 32 -30 43c91 101 174 256 226 412zM948 571h-272c61 -176 172 -350 286 -434c-11 -9 -27 -27 -37 -39c-116 95 -225 277 -289 463v-393h176v-45h-176v-192h-47v192h-184v45 h184v392c-67 -187 -178 -368 -294 -464c-7 11 -23 27 -35 35c114 87 226 264 291 440h-261v46h299v214h47v-214h312v-46z"/>
    <glyph glyph-name="Identity.10342" unicode="何" d="M279 831l45 -13c-25 -73 -58 -146 -94 -214v-677h-47v596c-33 -54 -69 -103 -106 -144c-6 11 -20 33 -30 44c94 99 179 253 232 408zM628 478h-209v-245h209v245zM673 189h-254v-73h-46v406h300v-333zM956 729v-46h-81v-676c0 -44 -13 -60 -45 -69s-98 -9 -198 -9 c-3 15 -12 35 -20 51c88 -3 165 -2 188 -1c22 1 28 7 28 27v677h-495v46h623z"/>
    <glyph glyph-name="Identity.10354" unicode="作" d="M306 829l46 -14c-30 -75 -66 -149 -107 -218v-669h-49v592c-38 -54 -78 -104 -120 -146c-5 10 -20 34 -30 44c103 99 200 254 260 411zM953 617h-324v-168h304v-45h-304v-175h318v-46h-318v-256h-48v690h-87c-45 -84 -96 -159 -149 -218c-8 7 -28 24 -38 31 c91 95 173 241 225 389l45 -12c-18 -49 -38 -98 -61 -144h437v-46z"/>
    <glyph glyph-name="Identity.10361" unicode="你" d="M282 829l45 -13c-30 -76 -67 -151 -108 -220v-668h-46v596c-38 -57 -79 -107 -122 -150c-4 10 -20 34 -29 43c103 100 200 255 260 412zM464 417l47 -9c-34 -134 -89 -260 -152 -345c-9 7 -30 20 -42 27c65 80 116 203 147 327zM894 587h-222v-595c0 -33 -8 -48 -30 -57 c-23 -8 -62 -9 -124 -9c-3 14 -10 34 -17 49c50 -2 94 -1 107 0c13 0 17 4 17 17v595h-175c-28 -71 -62 -133 -98 -184c-8 6 -28 22 -40 29c74 97 129 245 162 396l47 -10c-14 -63 -33 -126 -54 -185h442l10 2l31 -10c-13 -68 -31 -151 -44 -200l-41 8c9 39 21 99 29 154z M767 409l42 14c61 -108 116 -248 134 -341l-46 -15c-17 92 -72 236 -130 342z"/>
    <glyph glyph-name="Identity.10410" unicode="使" d="M292 835l44 -14c-29 -75 -66 -148 -107 -216v-683h-46v612c-39 -56 -82 -108 -125 -151c-6 10 -22 33 -31 44c105 98 204 251 265 408zM394 332h212c1 22 1 44 1 66v114h-213v-180zM873 512h-219v-114c0 -22 0 -44 -1 -66h220v180zM919 289h-270 c-7 -72 -25 -141 -72 -203c105 -61 237 -100 385 -118c-11 -11 -22 -30 -30 -45c-146 22 -277 64 -384 129c-51 -52 -127 -97 -238 -130c-6 10 -19 30 -28 39c106 29 179 69 227 117c-66 46 -120 103 -158 170l41 16c34 -59 84 -110 146 -152c41 54 58 114 65 177h-254v266 h258v114h-292v45h292v116h47v-116h301v-45h-301v-114h265v-266z"/>
    <glyph glyph-name="Identity.10456" unicode="供" d="M286 829l45 -13c-30 -76 -66 -150 -107 -219v-669h-48v594c-38 -55 -78 -106 -120 -148c-5 11 -20 34 -30 44c103 100 200 254 260 411zM489 175l46 -14c-48 -87 -121 -175 -187 -233c-8 9 -28 24 -40 32c69 54 138 135 181 215zM720 149l37 22c70 -67 147 -158 183 -219 l-40 -27c-36 63 -112 157 -180 224zM519 561v-273h224v273h-224zM790 288h164v-47h-648v47h166v273h-140v47h140v212h47v-212h224v212h47v-212h151v-47h-151v-273z"/>
    <glyph glyph-name="Identity.10469" unicode="侣" d="M804 508v238h-360v-238h360zM851 790v-326h-453v326h453zM261 826l45 -11c-22 -69 -50 -136 -80 -200v-689h-47v600c-35 -62 -74 -119 -114 -166c-5 11 -19 35 -29 45c91 103 174 261 225 421zM404 29h435v258h-435v-258zM356 332h531v-395h-48v47h-435v-55h-48v403z"/>
    <glyph glyph-name="Identity.10480" unicode="侬" d="M260 826l45 -12c-23 -70 -51 -140 -83 -205v-683h-47v594c-34 -59 -72 -113 -111 -159c-5 10 -19 34 -28 45c91 103 173 260 224 420zM887 429l34 -31c-52 -49 -122 -103 -179 -141c52 -119 124 -211 223 -266c-12 -10 -26 -26 -34 -39c-186 114 -277 341 -324 640 c-33 -90 -73 -168 -125 -235v-343l209 63c1 -12 4 -33 7 -43c-234 -74 -261 -86 -279 -99c-3 13 -13 34 -22 45c15 5 39 19 39 56v267c-40 -42 -85 -81 -137 -113c-7 9 -26 26 -38 33c155 90 252 226 312 409h-209v-109h-44v153h267c13 45 24 93 33 144l46 -7 c-9 -48 -19 -94 -32 -137h293v-153h-45v109h-237c17 -124 44 -239 81 -337c55 39 122 94 161 134z"/>
    <glyph glyph-name="Identity.10513" unicode="便" d="M272 829l45 -12c-27 -78 -61 -156 -98 -227v-662h-46v581c-31 -50 -64 -96 -98 -135c-5 10 -21 32 -30 43c91 101 175 256 227 412zM404 304h207c1 21 1 42 1 63v60h-208v-123zM404 587v-121h208v121h-208zM854 587h-195v-121h195v121zM854 304v123h-195v-59 c0 -22 0 -42 -2 -64h197zM901 263h-248c-9 -70 -31 -137 -85 -196c105 -50 239 -79 391 -91c-11 -11 -23 -30 -29 -44c-153 15 -289 48 -396 103c-53 -44 -131 -84 -240 -113c-5 12 -18 31 -28 40c103 25 175 58 225 97c-65 40 -119 92 -156 156l41 16 c34 -58 85 -105 151 -142c51 52 71 112 80 174h-249v365h254v99h-289v44h619v-44h-283v-99h242v-365z"/>
    <glyph glyph-name="Identity.10562" unicode="保" d="M292 830l44 -14c-30 -74 -66 -147 -107 -214v-673h-46v602c-40 -58 -82 -110 -125 -153c-6 10 -21 33 -31 44c104 98 204 251 265 408zM424 739v-212h417v212h-417zM948 292h-258c67 -116 179 -227 283 -281c-10 -10 -25 -26 -34 -38c-102 61 -214 179 -284 299v-346h-49 v346c-72 -122 -189 -239 -298 -298c-8 12 -23 29 -34 38c109 53 226 164 297 280h-272v46h307v144h-228v302h511v-302h-234v-144h293v-46z"/>
    <glyph glyph-name="Identity.10563" d="M292 830l44 -14c-30 -74 -67 -148 -108 -215v-671h-46v599c-39 -57 -81 -108 -124 -151c-6 10 -21 34 -31 44c104 98 204 251 265 408zM478 241l43 -15c-52 -85 -121 -182 -181 -246c-8 6 -27 22 -38 28c60 63 128 152 176 233zM725 220l37 21c69 -73 151 -171 188 -233 l-39 -26c-39 64 -118 165 -186 238zM424 739v-212h417v212h-417zM655 344h297v-45h-297v-372h-49v372h-306v45h306v138h-228v302h511v-302h-234v-138z"/>
    <glyph glyph-name="Identity.10571" d="M856 781v-42h-462v42h462zM291 830l44 -14c-29 -74 -65 -146 -106 -213v-673h-47v600c-40 -57 -83 -109 -126 -152c-6 10 -22 34 -30 45c105 98 204 250 265 407zM832 197h-407v-175h407v175zM377 -73v312h503v-309h-48v49h-407v-52h-48zM384 331v43h489v-43h-489z M874 511v-43h-490v43h490zM301 646h653v-43h-653v43z"/>
    <glyph glyph-name="Identity.10572" unicode="信" d="M659 703l-46 -20c-13 35 -43 90 -71 131l43 18c29 -42 59 -95 74 -129zM269 829l44 -12c-25 -73 -56 -145 -91 -212v-681h-45v601c-34 -56 -71 -107 -108 -150c-5 10 -20 33 -30 42c93 101 178 256 230 412zM820 198h-406v-186h406v186zM370 -75v315h495v-312h-45v42 h-406v-45h-44zM383 342v42h473v-42h-473zM856 523v-42h-473v42h473zM309 662h629v-43h-629v43z"/>
    <glyph glyph-name="Identity.10588" d="M248 826l45 -12c-22 -68 -50 -135 -80 -198v-689h-46v601c-36 -62 -74 -119 -115 -167c-5 11 -19 33 -28 45c91 103 173 261 224 420zM317 92v628h44v-628h-44zM900 179l43 -20c-97 -116 -290 -190 -506 -227c-5 11 -16 29 -26 40c211 31 398 100 489 207zM701 385 l39 -16c-60 -64 -165 -119 -261 -151c-6 10 -19 23 -29 31c92 29 195 79 251 136zM795 285l39 -16c-73 -82 -207 -146 -338 -183c-8 11 -19 25 -29 35c128 31 259 91 328 164zM539 677l-4 -6c30 -53 75 -106 137 -152c56 44 102 96 135 158h-268zM944 677h-86 c-36 -73 -87 -133 -149 -183c71 -46 160 -83 266 -104c-9 -10 -21 -27 -27 -39c-111 25 -202 67 -275 117c-78 -55 -170 -96 -270 -127c-6 11 -21 31 -29 40c98 26 188 63 263 113c-55 44 -97 93 -127 141c-33 -45 -68 -86 -104 -119c-8 7 -27 23 -38 30 c82 70 157 176 203 288l45 -12c-15 -35 -32 -70 -51 -103h379v-42z"/>
    <glyph glyph-name="Identity.10589" unicode="修" d="M249 826l45 -13c-22 -69 -50 -136 -81 -200v-687h-46v599c-35 -61 -74 -118 -114 -165c-5 11 -19 33 -28 45c90 103 173 261 224 421zM310 77v480h43v-480h-43zM539 677l-3 -5c33 -57 85 -114 157 -162c70 43 128 99 166 167h-320zM893 722l28 -16 c-40 -93 -107 -165 -190 -220c65 -36 142 -66 233 -84c-9 -9 -22 -28 -28 -39c-96 22 -177 57 -245 99c-90 -52 -196 -86 -300 -105c-5 11 -15 28 -23 38c99 17 199 46 285 92c-63 46 -110 98 -142 149c-33 -47 -69 -88 -105 -121c-8 7 -27 23 -38 30c82 70 157 177 203 289 l45 -12c-15 -35 -33 -70 -51 -103h319zM795 283l39 -16c-73 -82 -207 -146 -338 -183c-8 10 -19 25 -29 35c128 31 259 91 328 164zM701 384l39 -16c-60 -64 -165 -119 -261 -151c-6 10 -19 23 -29 31c92 29 195 79 251 136zM900 177l43 -19c-97 -117 -290 -191 -506 -228 c-5 11 -16 29 -26 41c211 31 398 100 489 206z"/>
    <glyph glyph-name="Identity.10666" d="M931 584v-43h-539v43h385v153h-309v43h354v-196h109zM248 826l45 -12c-23 -66 -50 -132 -80 -194v-693h-46v605c-37 -64 -76 -123 -118 -171c-6 11 -19 33 -29 45c92 103 176 261 228 420zM314 92v630h45v-630h-45zM961 197h-263c27 -83 89 -187 267 -232 c-11 -9 -24 -28 -31 -39c-161 44 -229 140 -263 225c-28 -81 -98 -163 -268 -226c-6 10 -19 27 -29 36c188 64 244 154 261 236h-242v43h247c1 11 1 21 1 31v119h-129c-24 -45 -51 -86 -79 -118c-8 6 -27 19 -39 26c57 61 103 150 130 242l45 -10c-10 -33 -23 -66 -37 -97 h391v-43h-235v-119c0 -10 0 -20 -1 -31h274v-43z"/>
    <glyph glyph-name="Identity.10667" unicode="候" d="M945 594v-44h-554v44h380c8 46 17 101 23 144h-341v43h352l9 3l32 -5c-7 -58 -17 -127 -27 -185h126zM245 826l44 -13c-23 -78 -53 -157 -87 -230v-658h-46v567c-26 -49 -56 -93 -85 -131c-5 10 -20 33 -30 45c85 104 158 261 204 420zM300 120v488h43v-488h-43zM944 195 h-245c25 -79 87 -178 256 -222c-10 -9 -24 -27 -31 -41c-154 44 -219 136 -253 218c-28 -80 -99 -163 -270 -225c-6 11 -20 28 -31 37c191 63 249 153 266 233h-243v44h249c1 11 1 22 1 31v120h-130c-25 -46 -52 -87 -81 -120c-8 7 -27 20 -39 27c57 60 103 149 129 241 l46 -10c-10 -32 -22 -65 -35 -95h375v-43h-219v-120c0 -9 0 -20 -1 -31h256v-44z"/>
    <glyph glyph-name="Identity.10668" d="M950 594v-44h-559v44h380c8 46 17 101 23 144h-341v43h352l9 3l32 -5c-7 -58 -17 -127 -27 -185h131zM245 826l44 -13c-23 -78 -53 -157 -87 -230v-658h-46v567c-26 -49 -56 -93 -85 -131c-5 10 -20 33 -30 45c85 104 158 261 204 420zM300 119v484h44v-484h-44zM948 195 h-265c-17 -94 -79 -196 -282 -270c-7 10 -20 27 -31 37c190 63 247 153 265 233h-242v44h248c1 11 1 22 1 31v120h-129c-25 -46 -52 -87 -81 -120c-8 7 -27 20 -39 27c57 60 103 149 129 241l46 -10c-10 -32 -22 -65 -35 -95h379v-43h-223v-120c0 -9 0 -20 -1 -31h260v-44z M700 147l35 23c77 -65 175 -155 226 -208l-37 -30c-49 55 -147 147 -224 215z"/>
    <glyph glyph-name="Identity.10729" unicode="值" d="M281 833l44 -14c-29 -80 -66 -161 -107 -233v-659h-46v583c-32 -50 -67 -95 -102 -133c-5 11 -21 33 -29 44c96 101 185 255 240 412zM430 104v-98h379v98h-379zM809 530h-379v-101h379v101zM809 286v103h-379v-103h379zM430 247v-103h379v103h-379zM854 6h97v-44h-667 v44h101v565h172c8 30 16 69 24 109h-255v44h263c7 39 13 77 17 110l52 -6c-6 -32 -13 -68 -21 -104h280v-44h-289c-9 -40 -17 -78 -26 -109h252v-565z"/>
    <glyph glyph-name="Identity.10803" d="M234 826l45 -11c-20 -64 -44 -128 -72 -187v-698h-45v609c-33 -59 -69 -112 -106 -157c-6 11 -20 35 -28 45c86 98 161 246 206 399zM440 468l27 -7c-14 -144 -41 -258 -81 -347c67 -93 166 -121 303 -121c25 0 241 0 275 1c-8 -11 -16 -33 -19 -45h-256 c-148 0 -253 28 -325 121c-32 -58 -71 -103 -115 -138c-7 9 -19 25 -30 34c45 34 85 82 117 145c-30 53 -54 121 -72 208l39 14c14 -71 32 -128 55 -173c30 72 51 161 64 265h-109l-24 -50l-42 10c49 98 109 234 146 321h-123v43h145l8 3l32 -10c-31 -74 -77 -180 -123 -276 h100zM854 469v97h-142v-97h142zM712 702v-95h142v95h-142zM898 607h66v-41h-66v-138h-186v-94h203v-40h-203v-96h233v-41h-233v-128h-45v128h-211v41h211v96h-178v40h178v94h-160v41h160v97h-229v41h229v95h-160v40h160v84h45v-84h186v-135z"/>
    <glyph glyph-name="Identity.10804" unicode="健" d="M717 704v-96h116v96h-116zM833 471v96h-116v-96h116zM674 471v96h-192v41h192v96h-145v40h145v89h43v-89h158v-136h77v-41h-77v-137h-158v-90h183v-42h-183v-98h219v-42h-219v-138h-43v138h-195v42h195v98h-165v42h165v90h-145v41h145zM234 831l44 -12 c-19 -68 -44 -137 -72 -200v-690h-44v599c-27 -52 -58 -100 -90 -140c-5 11 -20 34 -29 45c82 98 150 247 191 398zM804 -20h151c-7 -11 -15 -30 -17 -42h-135c-160 0 -308 23 -416 139c-34 -66 -76 -115 -125 -151c-7 11 -24 26 -33 33c50 35 94 87 128 156 c-37 49 -68 110 -91 188l37 16c18 -65 44 -118 72 -160c29 70 48 157 60 261h-154c39 75 89 193 129 291h-125v44h188c-37 -92 -86 -209 -126 -293h106h3l27 -7c-14 -139 -39 -250 -76 -336c101 -116 246 -139 397 -139z"/>
    <glyph glyph-name="Identity.10945" d="M247 826l45 -11c-22 -67 -50 -134 -80 -197v-691h-46v604c-35 -62 -74 -119 -114 -166c-6 10 -20 33 -29 44c91 103 173 260 224 417zM416 230h184s0 -14 -1 -21c-10 -174 -19 -235 -38 -258c-13 -13 -26 -17 -48 -19c-19 0 -56 -1 -93 2c-1 12 -5 30 -12 42 c39 -4 75 -4 89 -4c13 0 21 1 27 8c13 14 22 68 30 209h-144c-21 -116 -60 -203 -133 -268c-6 9 -22 25 -33 33c94 77 127 203 134 375h-116v44h173v124h45v-124h161v-44h-216c-2 -35 -5 -68 -9 -99zM856 596h-142c-3 -8 -5 -17 -8 -25c11 -113 30 -238 72 -350 c41 105 64 230 78 375zM951 596h-49c-18 -172 -47 -314 -100 -431c38 -79 90 -149 161 -198c-10 -9 -26 -28 -34 -39c-65 50 -114 115 -151 187c-41 -74 -93 -137 -162 -190c-6 9 -21 28 -31 37c75 53 129 121 170 204c-43 103 -65 216 -78 321c-15 -38 -31 -72 -49 -102 c-7 7 -27 23 -37 30c18 29 34 62 48 98h-377v43h173v116h-142v43h142v108h45v-108h142v-43h-142v-116h160v-41c36 92 62 204 79 318l45 -7c-11 -64 -23 -127 -39 -186h226v-44z"/>
    <glyph glyph-name="Identity.10946" unicode="傲" d="M247 833l45 -13c-22 -72 -49 -143 -80 -211v-682h-46v590c-29 -54 -62 -103 -95 -146c-6 10 -20 34 -29 45c85 103 159 259 205 417zM846 604h-127c-4 -13 -7 -25 -11 -37c11 -118 32 -248 78 -363c39 107 55 239 60 400zM951 604h-59c-9 -189 -29 -337 -80 -454 c36 -74 85 -138 152 -184c-10 -8 -25 -26 -33 -39c-61 47 -108 107 -144 175c-39 -71 -93 -129 -168 -177c-5 10 -19 30 -29 38c79 47 135 109 174 187c-49 108 -72 229 -87 340c-14 -33 -29 -64 -46 -90h6v-43h-218c-2 -37 -4 -72 -8 -105h188s0 -16 -1 -23 c-10 -182 -20 -247 -40 -269c-12 -14 -26 -19 -48 -20c-19 -1 -56 -1 -92 1c-2 14 -6 31 -13 42c39 -3 75 -3 89 -3s21 1 27 9c14 15 23 72 31 221h-147c-19 -122 -59 -214 -135 -281c-6 9 -23 27 -33 34c100 80 128 213 136 394h-116v43h177v122h-143v42h143v108h-158v42 h158v109h45v-109h148v-42h-148v-108h131v-42h-131v-122h150c-9 8 -25 21 -37 28c66 100 108 251 133 405l47 -7c-10 -62 -24 -122 -40 -179h219v-43z"/>
    <glyph glyph-name="Identity.10947" d="M263 714h162v109h45v-109h152v-42h-152v-107h129v-42h-319v42h145v107h-162v42zM247 833l45 -13c-22 -72 -49 -143 -80 -211v-682h-46v590c-29 -54 -62 -104 -95 -147c-6 11 -20 35 -29 45c85 104 159 260 205 418zM402 252h187s-1 -16 -2 -23c-9 -180 -19 -244 -39 -266 c-12 -14 -25 -19 -48 -20c-17 -2 -55 -1 -92 2c-1 12 -5 30 -11 42c39 -4 75 -4 88 -4s21 1 27 8c13 16 22 72 30 219h-145c-19 -125 -59 -219 -136 -288c-6 9 -23 26 -33 35c97 79 128 210 135 387h-111v42h190c-12 30 -28 69 -43 99l42 13c17 -36 37 -81 48 -112h133v-42 h-212c-2 -32 -4 -63 -8 -92zM839 604h-125l-6 -18c9 -118 29 -253 75 -372c36 105 50 234 56 390zM945 604h-62c-8 -186 -27 -330 -76 -446c35 -75 83 -140 148 -188c-9 -8 -25 -26 -33 -39c-60 48 -105 109 -139 178c-40 -73 -95 -133 -171 -183c-6 10 -20 29 -29 38 c82 48 138 112 177 194c-47 113 -70 238 -83 350c-17 -38 -36 -73 -57 -104c-6 7 -24 23 -35 31c68 98 112 246 139 399l45 -9c-11 -61 -25 -121 -42 -178h218v-43z"/>
    <glyph glyph-name="Identity.10999" d="M247 826l45 -11c-22 -68 -50 -135 -80 -199v-689h-46v601c-36 -62 -74 -119 -115 -167c-5 11 -19 34 -28 45c91 103 173 261 224 420zM385 600v-135h216v135h-216zM685 725h-222c-21 -29 -45 -58 -71 -86h230c22 24 45 56 63 86zM867 465v135h-221v-135h221zM903 388 l37 -28c-52 -45 -124 -95 -181 -129c51 -97 118 -175 199 -219c-12 -10 -27 -27 -35 -39c-134 82 -231 254 -282 451h-28c-19 -15 -41 -30 -64 -44c170 -142 174 -369 89 -428c-28 -20 -52 -25 -90 -25c-22 0 -51 0 -82 2c0 12 -5 31 -12 43c33 -3 66 -4 85 -4 c27 0 47 2 67 16c36 24 52 91 36 169c-89 -80 -231 -163 -349 -206c-7 13 -18 29 -29 38c125 41 284 130 365 213c-9 25 -22 50 -38 75c-72 -57 -186 -118 -277 -151c-7 11 -19 27 -31 37c95 27 218 88 285 145c-15 19 -33 38 -54 55c-67 -38 -142 -71 -209 -95 c-7 10 -22 28 -31 37c93 28 198 72 275 123h-209v164c-17 -15 -36 -31 -55 -45c-8 10 -24 23 -36 28c108 76 187 180 229 260l49 -8c-10 -18 -22 -37 -34 -56h221l8 2l32 -20c-22 -38 -50 -78 -78 -110h238v-215h-229c15 -56 34 -110 57 -160c55 35 121 87 161 124z"/>
    <glyph glyph-name="Identity.11000" unicode="像" d="M281 829l45 -13c-30 -80 -66 -159 -107 -231v-655h-47v577c-32 -49 -68 -94 -103 -133c-5 10 -20 32 -29 43c96 101 186 256 241 412zM404 458h159c31 46 42 91 45 124h-204v-124zM678 720h-198c-23 -33 -50 -66 -79 -98h208c24 27 50 65 69 98zM844 458v124h-193 c-2 -35 -11 -79 -36 -124h229zM859 363l34 -31c-34 -24 -77 -49 -120 -72c36 -103 104 -197 189 -239c-12 -9 -26 -26 -34 -37c-85 49 -155 147 -192 257c-19 -10 -39 -20 -58 -28c37 -107 25 -217 -21 -257c-24 -22 -46 -28 -79 -28c-18 0 -41 1 -64 3c-1 12 -6 30 -13 43 c27 -3 50 -4 68 -4c21 0 38 0 54 17c30 25 41 96 25 173c-87 -84 -226 -163 -341 -201c-8 11 -19 27 -29 36c126 37 278 120 359 206c-7 24 -17 47 -30 70c-76 -67 -200 -135 -294 -170c-7 11 -20 26 -28 34c100 31 232 100 302 166c-15 22 -34 42 -55 61 c-50 -40 -117 -77 -211 -110c-7 9 -19 23 -30 33c116 38 190 85 237 132h-169v163c-22 -20 -44 -39 -68 -57c-7 10 -21 23 -32 29c113 82 194 193 237 280l47 -8c-11 -21 -22 -41 -36 -63h198l9 3l29 -21c-21 -41 -53 -85 -83 -121h230v-205h-304c-7 -10 -16 -20 -26 -29 c48 -40 83 -89 106 -142c65 34 145 82 193 117z"/>
    <glyph glyph-name="Identity.11001" d="M281 829l45 -13c-30 -80 -66 -159 -107 -231v-655h-47v577c-32 -49 -68 -94 -103 -133c-5 10 -20 32 -29 43c96 101 186 256 241 412zM403 582v-124h198v124h-198zM678 720h-199c-23 -33 -50 -66 -79 -98h208c24 27 50 65 70 98zM844 458v124h-198v-124h198zM858 388 l34 -32c-35 -23 -77 -48 -120 -69c36 -104 103 -205 182 -251c-11 -9 -26 -26 -33 -37c-79 53 -147 158 -186 269c-18 -9 -36 -18 -52 -24c46 -115 35 -239 -16 -282c-25 -23 -47 -28 -80 -28c-19 -1 -42 0 -65 2c-1 12 -6 31 -13 43c26 -3 51 -4 69 -4c22 0 39 1 56 17 c31 27 43 100 25 180c-87 -87 -229 -167 -346 -207c-7 12 -19 28 -29 36c129 39 284 124 364 212c-7 23 -17 46 -31 68c-77 -69 -203 -138 -299 -173c-7 10 -20 25 -29 34c102 32 238 102 309 169c-16 23 -35 43 -58 62c-71 -54 -164 -103 -238 -130c-7 10 -19 25 -28 33 c86 27 195 83 266 141h-181v163c-22 -20 -44 -39 -69 -58c-7 10 -21 24 -32 30c113 82 195 193 237 280l47 -8c-10 -21 -22 -41 -36 -63h198l9 3l29 -21c-21 -41 -53 -85 -83 -121h230v-205h-294c-7 -7 -15 -14 -23 -21c41 -33 73 -75 95 -119c64 30 143 77 191 111z"/>
    <glyph glyph-name="Identity.11204" unicode="儿" d="M646 793h48v-759c0 -43 8 -51 43 -51h124c40 0 46 45 50 217c12 -11 31 -21 45 -23c-6 -183 -17 -241 -94 -241h-128c-68 0 -88 20 -88 99v758zM269 791h48v-325c0 -201 -26 -398 -241 -541c-8 10 -24 27 -35 35c205 135 228 320 228 506v325z"/>
    <glyph glyph-name="Identity.11211" unicode="元" d="M856 750v-47h-706v47h706zM696 -9h153c45 0 51 27 55 186c13 -10 32 -19 46 -22c-6 -166 -21 -210 -99 -210h-158c-76 0 -97 18 -97 86v388h-211c-20 -220 -69 -401 -295 -490c-6 11 -20 28 -31 36c216 82 259 253 276 454h-270v46h872v-46h-293v-388c0 -32 9 -40 52 -40 z"/>
    <glyph glyph-name="Identity.11213" d="M105 379l-3 49c44 1 95 2 152 4c39 62 86 155 117 227h-300v46h403v128h49v-128h409v-46h-506c-35 -73 -81 -161 -122 -225c139 4 302 10 464 17c-52 49 -111 99 -166 138l37 25c105 -74 227 -183 283 -258l-41 -30c-18 25 -42 53 -71 83c-258 -11 -531 -23 -705 -30z M347 349h50c-18 -222 -72 -353 -314 -419c-5 11 -19 30 -30 40c232 58 279 177 294 379zM700 -17h151c44 0 51 23 56 180c10 -10 31 -18 45 -22c-7 -164 -21 -206 -98 -206h-156c-76 0 -97 17 -97 83v338h48v-339c0 -29 8 -34 51 -34z"/>
    <glyph glyph-name="Identity.11214" unicode="充" d="M571 695l-47 -20c-16 38 -54 99 -85 142l44 17c32 -44 70 -102 88 -139zM686 0h160c42 0 50 23 54 160c12 -10 32 -19 46 -23c-7 -146 -22 -183 -97 -183h-166c-77 0 -99 17 -99 82v313l-172 -10c-20 -215 -80 -346 -316 -413c-6 12 -20 31 -30 41 c224 59 277 176 294 369c-162 -10 -190 -13 -209 -20c-3 10 -11 36 -17 51c18 2 41 22 69 49c26 25 107 112 172 204h-305v47h862v-47h-493c-67 -91 -140 -177 -213 -244l536 28c-50 48 -108 97 -160 136l37 24c96 -70 210 -173 266 -242l-40 -28c-16 20 -37 43 -61 68 l-171 -10v-316c0 -29 8 -36 53 -36z"/>
    <glyph glyph-name="Identity.11215" d="M686 -6h166c44 0 50 24 54 160c13 -10 32 -18 46 -22c-7 -145 -22 -183 -98 -183h-170c-78 0 -100 16 -100 82v347l-173 -10c-18 -229 -72 -366 -314 -437c-4 12 -18 30 -28 39c230 62 277 189 293 395c-165 -10 -191 -13 -211 -20c-3 11 -10 37 -17 50c20 5 47 35 82 78 c23 25 76 92 133 176h-278v46h309c28 44 56 90 81 136l52 -20c-24 -40 -48 -78 -73 -116h492v-46h-523c-62 -90 -126 -175 -190 -245l535 28c-50 48 -108 98 -162 137l37 24c97 -69 209 -170 261 -242l-40 -27c-14 20 -33 42 -55 67l-163 -10v-350c0 -30 9 -37 54 -37z"/>
    <glyph glyph-name="Identity.11219" unicode="先" d="M705 -11h150c41 0 47 22 51 159c12 -9 31 -17 45 -22c-6 -146 -21 -183 -93 -183h-156c-75 0 -95 17 -95 81v323h-216c-22 -206 -80 -352 -306 -426c-6 12 -20 30 -30 40c217 64 268 201 287 386h-275v47h409v224h-226c-27 -60 -58 -117 -94 -161c-11 7 -30 18 -41 23 c70 86 123 218 148 323l48 -10c-10 -40 -25 -84 -42 -128h207v168h48v-168h344v-47h-344v-224h411v-47h-281v-324c0 -28 9 -34 51 -34z"/>
    <glyph glyph-name="Identity.11220" d="M811 794l47 -20c-40 -85 -96 -192 -141 -258l-40 16c44 69 102 183 134 262zM322 532l-45 -18c-20 66 -74 172 -128 251l43 15c54 -77 110 -180 130 -248zM699 -26h154c43 0 51 25 55 173c10 -10 31 -17 45 -21c-7 -157 -21 -198 -97 -198h-159c-76 0 -97 17 -97 85v384 h-211c-19 -226 -72 -389 -315 -469c-6 11 -21 31 -32 40c235 72 281 223 297 429h-280v46h415v390h48v-390h422v-46h-297v-384c0 -31 9 -39 52 -39z"/>
    <glyph glyph-name="Identity.11221" unicode="光" d="M809 760l47 -20c-45 -71 -105 -158 -153 -212l-40 18c48 56 111 149 146 214zM339 552l-41 -24c-29 54 -92 146 -146 213l39 20c54 -66 118 -155 148 -209zM681 -7h167c31 0 37 12 40 80c12 -8 31 -15 45 -18c-6 -85 -21 -108 -82 -108h-172c-77 0 -98 15 -98 79v386 h-167c-18 -243 -68 -404 -316 -488c-6 12 -21 31 -32 41c239 73 283 225 298 447h-292v47h402v374h49v-374h398v-47h-292v-386c0 -27 8 -33 52 -33z"/>
    <glyph glyph-name="Identity.11224" unicode="克" d="M234 504v-192h534v192h-534zM681 -18h170c45 0 52 21 56 154c13 -9 32 -18 46 -21c-7 -145 -22 -179 -98 -179h-176c-80 0 -103 16 -103 79v252h-169c-25 -176 -93 -287 -325 -342c-4 13 -18 34 -28 43c218 46 280 146 302 299h-169v281h287v131h-401v45h401v110h48v-110 h408v-45h-408v-131h294v-281h-191v-252c0 -27 9 -33 56 -33z"/>
    <glyph glyph-name="Identity.11269" d="M228 769h304c0 -171 20 -556 428 -800c-11 -8 -31 -27 -40 -38c-273 166 -376 405 -414 599c-75 -283 -204 -476 -420 -601c-8 9 -30 29 -43 39c230 120 356 327 422 620l32 -6c-8 52 -11 99 -12 139h-257v48z"/>
    <glyph glyph-name="Identity.11270" unicode="入" d="M310 762l29 40c319 -225 277 -617 615 -812c-9 -13 -21 -36 -24 -52c-243 136 -301 383 -419 592c-75 -282 -203 -475 -419 -599c-10 10 -31 28 -44 38c230 123 357 329 425 623c-44 64 -95 122 -163 170z"/>
    <glyph glyph-name="Identity.11275" d="M470 833h46c103 -144 285 -299 439 -382c-12 -12 -24 -28 -33 -41c-153 91 -333 245 -426 375c-80 -123 -246 -281 -417 -384c-6 12 -19 27 -30 38c172 99 341 261 421 394zM522 192v-190h404v-45h-849v45h396v190h-313v44h313v181h-271v45h603v-45h-283v-181h317v-44 h-317z"/>
    <glyph glyph-name="Identity.11276" unicode="全" d="M524 192v-190h402v-45h-850v45h399v190h-274v44h274v180h-276v45h608v-45h-283v-180h288v-44h-288zM500 844l43 -19c-5 -8 -11 -17 -17 -25c125 -153 278 -266 443 -361c-12 -9 -28 -26 -34 -40c-160 99 -305 211 -435 364c-109 -144 -270 -278 -433 -360 c-7 12 -21 28 -34 37c184 88 368 244 467 404z"/>
    <glyph glyph-name="Identity.11285" d="M330 800l51 -14c-68 -162 -173 -314 -283 -414c-9 8 -30 26 -43 33c112 95 213 242 275 395zM619 256l44 21c93 -103 200 -241 251 -328l-47 -26c-14 25 -32 54 -54 85c-259 -14 -534 -27 -715 -34l-6 50l137 5c69 124 153 311 199 444l54 -15 c-54 -132 -131 -303 -199 -427c150 5 327 12 500 20c-50 69 -110 144 -164 205zM615 782l45 19c71 -137 203 -305 295 -388c-13 -10 -30 -27 -40 -40c-92 93 -223 268 -300 409z"/>
    <glyph glyph-name="Identity.11286" unicode="公" d="M340 799l50 -14c-68 -162 -173 -311 -286 -409c-10 9 -31 25 -44 33c116 92 219 237 280 390zM621 277l43 21c91 -105 197 -245 247 -335l-45 -25c-18 31 -42 70 -70 110c-550 -33 -597 -36 -627 -46c-3 11 -12 37 -19 51c22 5 52 39 87 86c40 45 162 220 245 385l50 -22 c-88 -158 -188 -318 -291 -438l524 29c-46 63 -97 129 -144 184zM603 788l46 19c71 -145 203 -311 309 -392c-13 -10 -30 -28 -40 -40c-106 90 -238 262 -315 413z"/>
    <glyph glyph-name="Identity.11287" d="M330 799l50 -15c-70 -165 -177 -319 -291 -420c-9 9 -29 28 -42 36c116 95 219 243 283 399zM620 277l43 18c82 -105 180 -246 227 -332l-46 -25c-14 27 -33 59 -54 93c-544 -33 -591 -35 -622 -47c-2 12 -11 37 -18 52c21 4 53 41 92 90c39 47 169 231 257 405l50 -23 c-94 -166 -200 -336 -308 -461l520 28c-44 69 -96 141 -141 202zM449 807h238c51 -170 156 -327 271 -405c-12 -10 -29 -27 -39 -41c-111 82 -213 233 -268 398h-202v48z"/>
    <glyph glyph-name="Identity.11297" d="M698 831l49 -18c-33 -63 -76 -139 -111 -187l-38 17c33 50 77 132 100 188zM400 652l-42 -24c-18 48 -60 121 -100 173l38 19c43 -51 85 -122 104 -168zM833 316h-299c49 -172 151 -296 316 -347c-12 -10 -26 -28 -32 -41c-154 54 -255 169 -311 331 c-26 -118 -104 -242 -329 -335c-7 11 -22 29 -33 39c252 96 310 233 323 353h-299v46h302v32v166h-259v46h574v-46h-267v-166v-32h314v-46z"/>
    <glyph glyph-name="Identity.11298" unicode="关" d="M379 651l-42 -24c-18 48 -60 119 -100 171l39 21c42 -51 85 -122 103 -168zM930 315h-386c73 -164 217 -287 403 -337c-10 -10 -25 -30 -33 -44c-184 57 -327 182 -407 354c-35 -125 -135 -256 -413 -361c-7 12 -22 31 -34 42c282 102 373 229 401 346h-387v47h396 c4 29 5 59 5 85v119h-345v48h475c42 60 91 150 118 214l50 -20c-34 -63 -76 -138 -116 -194h218v-48h-349v-120c0 -26 -1 -55 -4 -84h408v-47z"/>
    <glyph glyph-name="Identity.11302" unicode="其" d="M298 317v-132h405v132h-405zM703 660h-405v-122h405v122zM298 494v-133h405v133h-405zM942 185v-45h-883v45h191v475h-165v45h165v126h48v-126h405v126h48v-126h169v-45h-169v-475h191zM369 112l47 -29c-89 -58 -224 -116 -334 -154c-6 11 -21 29 -32 39 c110 33 249 93 319 144zM586 76l31 32c121 -42 247 -99 326 -142l-39 -35c-75 45 -196 100 -318 145z"/>
    <glyph glyph-name="Identity.11303" d="M252 591v-116h508v116h-508zM252 435v-117h508v117h-508zM252 746v-115h508v115h-508zM205 788h603v-512h-603v512zM59 195h883v-46h-883v46zM602 68l31 33c117 -42 239 -96 316 -139l-40 -34c-73 42 -191 97 -307 140zM356 105l47 -28c-82 -57 -210 -114 -312 -149 c-7 10 -22 28 -33 38c102 33 231 90 298 139z"/>
    <glyph glyph-name="Identity.11304" unicode="具" d="M262 306v-110h485v110h-485zM747 741h-485v-104h485v104zM747 452h-485v-106h485v106zM747 493v103h-485v-103h485zM945 196v-45h-887v45h157v588h581v-588h149zM337 129l47 -26c-76 -66 -198 -134 -301 -175c-7 9 -24 26 -34 35c103 40 228 108 288 166zM620 97l30 33 c109 -49 225 -111 298 -160l-37 -37c-70 49 -182 112 -291 164z"/>
    <glyph glyph-name="Identity.11305" unicode="典" d="M347 129l48 -26c-76 -67 -198 -135 -300 -179c-8 11 -24 27 -34 36c102 41 225 110 286 169zM609 99l32 32c108 -52 222 -118 293 -168l-41 -33c-67 49 -176 114 -284 169zM194 424v-215h172v215h-172zM366 663h-172v-193h172v193zM588 663h-177v-193h177v193zM814 663 h-180v-193h180v193zM588 209v215h-177v-215h177zM634 424v-215h180v215h-180zM862 209h92v-46h-909v46h102v500h219v124h45v-124h177v125h46v-125h228v-500z"/>
    <glyph glyph-name="Identity.11309" d="M622 -72v389h47v-389h-47zM933 400h-280c71 -78 187 -143 300 -174c-12 -10 -27 -28 -34 -41c-120 39 -246 120 -320 215h-194c-24 -30 -53 -58 -86 -85h42v-62c0 -106 -20 -235 -212 -327c-7 10 -22 27 -33 35c183 84 199 203 199 293v57c-71 -57 -156 -104 -234 -132 c-8 11 -22 29 -33 38c109 33 228 103 301 183h-289v43h415v97h-322v42h322v91h-368v43h212c-16 31 -41 69 -65 98l41 15c32 -33 63 -80 77 -111l-4 -2h265l-9 3c27 32 61 82 80 116l47 -18c-23 -36 -51 -73 -74 -101h225v-43h-379v-91h329v-42h-329v-97h410v-43z"/>
    <glyph glyph-name="Identity.11310" unicode="养" d="M319 239v59h48v-60c0 -103 -21 -228 -214 -317c-6 12 -22 28 -33 36c183 81 199 195 199 282zM629 -73v373h49v-373h-49zM933 399h-279c71 -77 187 -143 298 -173c-11 -10 -26 -28 -33 -41c-120 39 -246 120 -319 214h-187c-77 -107 -187 -177 -341 -217 c-8 13 -21 31 -31 42c137 31 238 89 311 175h-292v43h325c20 30 38 63 53 98h-285v42h302c10 28 19 59 26 91h-374v42h231c-13 30 -43 74 -70 107l41 16c30 -32 60 -76 73 -105l-39 -18h268c29 34 65 88 84 124l48 -17c-24 -37 -51 -76 -77 -107h235v-42h-372 c-8 -32 -16 -63 -25 -91h347v-42h-363c-13 -35 -29 -68 -47 -98h492v-43z"/>
    <glyph glyph-name="Identity.11323" unicode="内" d="M895 659v-656c0 -39 -10 -57 -39 -66c-31 -9 -92 -9 -182 -9c-3 15 -11 36 -18 51c78 -3 147 -2 167 -1s25 7 25 25v609h-324c-2 -45 -7 -93 -21 -142c108 -93 239 -219 304 -297l-40 -31c-57 74 -174 191 -277 283c-37 -101 -111 -204 -261 -290c-6 10 -22 27 -33 35 c237 130 274 305 279 442h-321v-687h-48v734h370v173h49v-173h370z"/>
    <glyph glyph-name="Identity.11331" unicode="册" d="M598 433h192v287h-192v-252v-35zM210 433h172v287h-172v-252v-35zM953 433v-46h-116v-394c0 -34 -9 -50 -33 -58c-24 -9 -68 -9 -142 -9c-3 12 -11 32 -18 46c59 -2 110 -2 125 -1s21 6 21 23v393h-193c-6 -149 -30 -329 -116 -461c-7 11 -25 28 -36 33 c79 125 100 289 105 428h-121v-385c0 -33 -10 -49 -32 -57c-24 -8 -66 -9 -137 -9c-2 13 -10 32 -17 45c57 -1 105 -1 119 0s20 5 20 20v386h-174c-6 -151 -31 -333 -124 -465c-7 11 -26 27 -37 34c89 125 111 290 116 431h-115v46h116v35v297h265v-332h122v35v297h286v-332 h116z"/>
    <glyph glyph-name="Identity.11332" unicode="再" d="M520 221h264v150h-264v-150zM215 371v-150h258v150h-258zM473 560h-258v-145h258v145zM784 560h-264v-145h264v145zM955 221v-45h-124v-180c0 -37 -10 -53 -37 -62c-29 -8 -82 -9 -168 -9c-4 14 -12 34 -20 48c72 -2 136 -1 154 0s24 6 24 23v180h-569v-252h-47v252h-121 v45h121v384h305v117h-392v46h840v-46h-401v-117h311v-384h124z"/>
    <glyph glyph-name="Identity.11350" d="M134 728v-157h-47v203h827v-203h-48v157h-732zM944 208v-46h-215c-18 -125 -37 -184 -65 -210c-20 -18 -40 -24 -73 -25c-31 -1 -96 0 -161 5c-2 13 -7 32 -16 46c71 -7 140 -8 163 -8c24 0 37 1 47 12c23 19 41 71 57 180h-622v46h628c6 40 11 87 16 141h-429l-10 -36 l-49 6c30 100 69 272 93 395l48 -6c-8 -40 -17 -85 -28 -130h457v-44h-467c-11 -49 -22 -98 -33 -141h470s-1 -18 -3 -25c-6 -62 -11 -114 -17 -160h209z"/>
    <glyph glyph-name="Identity.11351" unicode="写" d="M285 378h528s-1 -18 -3 -25c-25 -252 -48 -349 -85 -387c-19 -17 -39 -23 -73 -23c-30 -2 -95 0 -160 5c-2 14 -7 32 -17 45c72 -6 140 -7 164 -7s36 1 45 10c33 27 55 118 76 337h-538c29 94 65 257 89 370l48 -4c-8 -39 -18 -81 -27 -124h464v-44h-475 c-11 -55 -24 -108 -36 -153zM668 203v-46h-573v46h573zM87 774h827v-176h-49v130h-731v-130h-47v176z"/>
    <glyph glyph-name="Identity.11353" unicode="军" d="M131 744v-153h-47v197h833v-197h-47v153h-739zM931 150v-45h-375v-177h-47v177h-430v45h430v143h-204c-59 0 -88 -5 -98 -13c-2 11 -9 35 -16 47c16 3 34 30 56 67c11 19 39 69 68 132h-133v44h154c18 41 36 85 50 128l49 -15c-15 -37 -32 -76 -48 -113h428v-44h-449 c-33 -70 -69 -134 -105 -189h248v134h47v-134h290l-1 -44h-289v-143h375z"/>
    <glyph glyph-name="Identity.11391" unicode="决" d="M254 604l-40 -28c-29 53 -96 135 -154 193l38 23c57 -56 125 -136 156 -188zM222 332l35 -31c-48 -105 -114 -237 -168 -329l-41 30c50 80 122 216 174 330zM619 623v-115c0 -46 -1 -94 -7 -143h187v258h-180zM956 319h-305c49 -171 149 -297 306 -350 c-11 -11 -25 -28 -33 -42c-163 65 -268 202 -319 392c-26 -143 -104 -289 -322 -395c-7 11 -22 28 -32 38c207 95 281 227 306 357h-254v46h261c6 49 7 97 7 142v116h-212v46h212v161h48v-161h226v-304h111v-46z"/>
    <glyph glyph-name="Identity.11428" d="M288 620l-33 -37c-37 44 -114 109 -179 153l32 32c65 -43 143 -103 180 -148zM84 8l-41 33c55 70 135 189 193 291l36 -31c-56 -95 -130 -211 -188 -293zM448 185v-160h198v160h-198zM646 432v155h-198v-155h198zM646 230v157h-198v-157h198zM953 25v-45h-505v-52h-46 v615c-33 -54 -68 -102 -105 -143c-8 9 -27 27 -38 34c94 97 173 245 222 399l47 -12c-21 -65 -47 -129 -77 -189h203c23 56 49 141 63 198l49 -15c-21 -58 -45 -129 -67 -183h227v-45h-233v-155h211v-45h-211v-157h211v-45h-211v-160h260z"/>
    <glyph glyph-name="Identity.11429" unicode="准" d="M727 685l-44 -21c-12 39 -44 98 -72 142l40 16c30 -43 62 -99 76 -137zM244 577l-43 -26c-28 57 -90 148 -143 215l41 20c54 -65 116 -154 145 -209zM105 -25l-47 26c46 79 110 217 155 330l41 -25c-43 -107 -102 -240 -149 -331zM421 207v-160h229v160h-229zM650 451 v155h-229v-155h229zM650 251v156h-229v-156h229zM943 47v-45h-522v-74h-45v623c-35 -58 -74 -110 -116 -153c-6 9 -25 26 -37 33c96 95 179 242 230 391l45 -10c-19 -56 -42 -110 -67 -162h489v-44h-223v-155h202v-44h-202v-156h202v-44h-202v-160h246z"/>
    <glyph glyph-name="Identity.11519" d="M836 335h49v-405h-49v63h-667v-66h-48v408h48v-296h303v366h-313v332h47v-285h266v378h48v-378h276v285h49v-332h-325v-366h316v296z"/>
    <glyph glyph-name="Identity.11520" unicode="出" d="M835 336h51v-407h-51v59h-718v349h52v-302h306v371h-317v332h49v-285h268v378h50v-378h271v285h50v-332h-321v-371h310v301z"/>
    <glyph glyph-name="Identity.11521" unicode="击" d="M525 392v-355h267v266h48v-377h-48v64h-634v314h50v-267h268v355h-400v47h400v182h-325v47h325v164h49v-164h331v-47h-331v-182h402v-47h-402z"/>
    <glyph glyph-name="Identity.11539" d="M335 809l48 -14c-70 -166 -185 -308 -310 -402c-8 11 -29 28 -41 36c128 88 239 224 303 380zM183 449h622s0 -19 -1 -26c-17 -313 -33 -427 -67 -463c-17 -20 -36 -25 -69 -27c-32 -2 -97 0 -162 3c-2 16 -7 35 -17 48c72 -5 139 -6 162 -6c21 0 34 2 43 11 c29 28 46 133 61 414h-295c-28 -202 -93 -390 -345 -479c-6 11 -21 29 -31 39c243 80 301 257 325 440h-226v46zM620 792l44 19c66 -140 196 -294 304 -367c-12 -10 -30 -28 -39 -41c-109 81 -238 243 -309 389z"/>
    <glyph glyph-name="Identity.11540" unicode="分" d="M336 809l49 -14c-67 -165 -173 -307 -291 -400c-8 9 -29 27 -42 34c121 88 224 226 284 380zM184 449h621s0 -19 -1 -26c-17 -311 -31 -422 -66 -460c-18 -19 -37 -25 -70 -26c-32 -2 -96 -1 -161 4c-2 14 -7 34 -17 48c71 -7 139 -8 161 -8c23 0 34 2 44 12 c29 28 45 132 60 409h-310c-27 -202 -94 -390 -345 -478c-6 11 -19 29 -30 38c242 81 301 257 325 440h-211v47zM621 793l43 18c63 -140 185 -294 289 -368c-13 -9 -29 -26 -39 -39c-103 82 -225 244 -293 389z"/>
    <glyph glyph-name="Identity.11541" d="M311 800l49 -11c-54 -171 -153 -309 -272 -400c-8 10 -29 27 -41 35c122 84 215 217 264 376zM184 449h621s0 -19 -1 -26c-17 -313 -32 -427 -67 -464c-17 -19 -36 -25 -69 -27c-32 -2 -97 0 -162 4c-2 16 -7 34 -17 48c72 -6 140 -7 162 -7s34 2 43 12 c30 27 46 133 61 414h-295c-27 -203 -92 -391 -345 -480c-6 11 -21 30 -30 39c243 81 301 257 324 441h-225v46zM456 814h223c52 -163 163 -310 283 -382c-10 -9 -27 -28 -34 -41c-119 77 -227 219 -283 378h-189v45z"/>
    <glyph glyph-name="Identity.11542" d="M246 160h113c29 0 33 27 37 150c12 -10 30 -18 44 -22c-6 -135 -17 -174 -79 -174h-119c-63 0 -81 16 -81 86v286l-116 -26l-10 44l126 28v274h47v-264l246 55l9 -43l-255 -57v-298c0 -33 7 -39 38 -39zM932 737v-30c-14 -520 -26 -687 -65 -735c-18 -26 -39 -33 -70 -36 c-31 -1 -86 -1 -139 4c-1 15 -6 35 -15 48c62 -4 118 -4 140 -4c18 -1 29 1 39 15c33 37 48 209 61 692h-243c-6 -308 -27 -614 -294 -766c-7 11 -23 28 -36 36c260 140 277 438 283 730h-191v46h530z"/>
    <glyph glyph-name="Identity.11543" unicode="切" d="M218 172l214 91c2 -12 7 -31 10 -41c-239 -108 -266 -121 -284 -137c-4 12 -16 33 -25 44c15 8 38 26 38 65v304l-128 -29l-9 44l137 30v251h47v-240l204 46l9 -43l-213 -48v-337zM932 737v-30c-16 -517 -29 -684 -69 -733c-18 -24 -39 -32 -69 -35c-32 -1 -87 0 -140 3 c-1 15 -6 36 -15 49c62 -5 119 -5 140 -5c19 0 30 2 40 16c33 38 50 210 64 689h-237c-7 -307 -28 -610 -295 -760c-9 12 -25 29 -38 36c262 139 280 434 286 724h-173v46h506z"/>
    <glyph glyph-name="Identity.11565" unicode="则" d="M332 120l31 31c62 -49 140 -117 177 -160l-32 -36c-38 44 -113 114 -176 165zM122 775h409v-599h-47v555h-316v-556h-46v600zM849 828h47v-822c0 -41 -13 -56 -39 -65c-28 -8 -77 -9 -169 -9c-3 14 -11 34 -19 48c74 -2 135 -1 154 -1c18 1 26 7 26 26v823zM664 744h46 v-588h-46v588zM301 656h46v-281c0 -154 -34 -334 -257 -450c-5 10 -21 28 -32 35c216 112 243 272 243 416v280z"/>
    <glyph glyph-name="Identity.11567" unicode="创" d="M259 -16h199c48 0 56 23 60 149c13 -9 31 -16 45 -19c-7 -137 -23 -174 -104 -174h-200c-86 0 -110 16 -110 87v439h346s0 -16 -1 -23c-11 -177 -22 -241 -43 -265c-13 -13 -28 -18 -51 -20c-19 0 -57 -1 -94 2c-1 14 -6 31 -13 44c40 -4 78 -5 91 -5c14 0 22 1 29 9 c14 16 24 71 34 214h-252v-395c0 -35 11 -43 64 -43zM324 829l45 -13c-7 -15 -14 -29 -21 -43c88 -87 192 -204 242 -276l-35 -30c-47 69 -143 179 -227 268c-64 -113 -153 -220 -256 -302c-9 9 -26 23 -37 30c129 96 235 236 289 366zM704 715v-546h-46v546h46zM856 819h47 v-816c0 -40 -14 -55 -39 -64c-28 -8 -78 -9 -170 -8c-3 12 -11 32 -18 46c73 -2 135 -2 153 -1c19 1 27 7 27 26v817z"/>
    <glyph glyph-name="Identity.11569" d="M423 240l-31 -35c-23 32 -88 111 -129 156v-434h-47v399c-50 -57 -104 -107 -154 -145c-6 12 -21 32 -29 40c117 84 248 231 316 380h-288v45h155v187h47v-187h110l9 2l28 -18c-32 -81 -79 -159 -133 -231c10 -11 25 -27 42 -44c26 32 60 75 77 105l33 -25 c-27 -37 -60 -77 -88 -105c34 -37 69 -75 82 -90zM932 732v-31c-13 -514 -23 -679 -62 -726c-18 -26 -38 -33 -69 -36c-32 -2 -87 0 -141 4c-1 15 -6 35 -15 49c63 -6 121 -6 141 -6c20 -1 31 2 40 16c32 35 46 205 57 684h-236c-7 -281 -29 -600 -263 -760 c-8 10 -26 26 -39 34c229 148 248 462 254 726h-185v46h518z"/>
    <glyph glyph-name="Identity.11570" unicode="初" d="M294 695l-38 -24c-17 38 -53 96 -85 139l36 20c34 -41 72 -98 87 -135zM411 240l-32 -41c-22 33 -75 102 -116 152v-423h-49v414c-46 -55 -94 -104 -140 -143c-6 13 -21 36 -31 45c106 81 223 224 285 362h-270v45h295v-1l9 3l29 -20c-30 -77 -75 -154 -126 -225 c11 -12 25 -28 41 -46c29 30 65 72 84 100l38 -28c-31 -36 -68 -72 -98 -98c34 -41 68 -81 81 -96zM916 743v-30c-16 -522 -31 -696 -72 -745c-19 -25 -40 -32 -72 -34c-33 -2 -89 -1 -148 3c-1 14 -6 34 -14 47c65 -6 125 -6 149 -6c19 0 30 2 41 16c36 39 53 213 68 702 h-225c-19 -367 -67 -610 -260 -772c-6 9 -27 28 -38 36c190 145 233 388 248 736h-186v47h509z"/>
    <glyph glyph-name="Identity.11579" d="M490 781l47 -14c-30 -71 -69 -158 -103 -213l-38 14c32 55 74 150 94 213zM204 574l-43 -14c-13 55 -46 139 -78 203l40 11c34 -63 67 -146 81 -200zM328 459v-165h233v-46h-233v-320h-48v320h-234v46h234v165h-202v45h202v328h48v-328h204v-45h-204zM605 168v546h47 v-546h-47zM856 815h47v-816c0 -40 -14 -56 -39 -64c-28 -8 -78 -9 -170 -8c-3 11 -11 33 -19 47c74 -2 136 -1 154 0c19 0 27 6 27 24v817z"/>
    <glyph glyph-name="Identity.11580" unicode="判" d="M517 778l45 -13c-33 -72 -75 -156 -112 -211c-9 5 -30 17 -41 22c39 56 80 132 108 202zM231 580l-42 -21c-22 52 -68 135 -108 196l42 16c40 -61 87 -141 108 -191zM344 483v-54c0 -48 -2 -95 -7 -141h230v-46h-237c-22 -123 -78 -235 -210 -321c-8 9 -25 26 -38 33 c123 79 177 180 199 288h-231v46h239c6 46 8 94 8 141v54h-208v46h208v299h47v-299h201v-46h-201zM691 713v-546h-47v546h47zM856 814h47v-815c0 -41 -13 -56 -39 -65c-28 -9 -78 -9 -169 -9c-4 13 -12 34 -20 48c74 -2 136 -1 154 -1c19 1 27 7 27 26v816z"/>
    <glyph glyph-name="Identity.11587" d="M322 736v-206h205v-46h-205v-82c43 -33 166 -141 198 -170l-29 -39c-31 33 -115 111 -169 158v-422h-46v483c-55 -130 -139 -264 -215 -338c-6 12 -20 31 -28 43c83 78 180 230 230 367h-208v46h221v197c-70 -13 -143 -24 -210 -33c-3 12 -9 28 -16 39 c149 20 330 53 423 93l37 -37c-50 -20 -116 -37 -188 -53zM605 171v545h47v-545h-47zM856 815h47v-816c0 -40 -14 -56 -39 -64c-28 -9 -78 -10 -170 -9c-3 12 -11 33 -19 48c74 -3 136 -2 154 -1c19 1 27 7 27 25v817z"/>
    <glyph glyph-name="Identity.11588" unicode="利" d="M330 736v-206h223v-46h-223v-22c46 -44 173 -179 205 -213l-29 -38c-34 41 -120 136 -176 195v-478h-48v479c-56 -129 -137 -261 -213 -334c-7 13 -19 32 -29 43c83 79 180 231 231 368h-211v46h222v196c-70 -13 -142 -24 -209 -32c-2 11 -9 28 -14 39 c148 19 329 53 421 93l37 -37c-50 -20 -115 -38 -187 -53zM689 716v-545h-47v545h47zM856 824h47v-819c0 -40 -14 -55 -39 -64c-28 -8 -77 -9 -169 -9c-3 13 -11 34 -19 48c73 -2 136 -1 153 -1c19 2 27 7 27 26v819z"/>
    <glyph glyph-name="Identity.11590" unicode="别" d="M442 518v226h-295v-226h295zM488 788v-315h-386v315h386zM293 345h208s-1 -18 -1 -25c-12 -247 -23 -333 -48 -362c-14 -16 -29 -22 -55 -23c-22 -1 -67 -1 -110 2c-1 15 -6 33 -14 47c47 -5 91 -5 106 -5c16 0 25 1 33 10c17 20 29 99 39 311h-164 c-20 -166 -70 -299 -212 -377c-7 12 -22 28 -34 35c133 70 182 192 200 342h-182v45h187c3 32 5 65 7 100h47c-2 -35 -4 -68 -7 -100zM688 714v-547h-47v547h47zM856 814h47v-815c0 -40 -13 -56 -38 -65c-28 -8 -76 -9 -167 -8c-3 12 -11 33 -19 47c73 -2 133 -1 150 0 c19 0 27 6 27 25v816z"/>
    <glyph glyph-name="Identity.11595" d="M339 246v-197c76 11 155 22 234 33l1 -44c-189 -28 -389 -57 -520 -76l-7 48c65 8 151 20 245 33v203h-205v45h205v133h47v-133h204v-45h-204zM380 629l37 21c63 -70 136 -165 168 -225l-39 -24c-10 19 -24 43 -41 68c-163 -12 -329 -22 -445 -29l-5 47l93 5 c33 65 69 159 91 229h-181v46h514v-46h-279c-28 -72 -62 -160 -94 -227c84 5 179 10 277 16c-30 41 -64 84 -96 119zM619 168v546h46v-546h-46zM860 805h46v-801c0 -43 -11 -60 -39 -69c-30 -7 -87 -8 -166 -8c-3 13 -11 37 -19 53c71 -3 135 -2 154 -2c18 1 24 6 24 24v803 z"/>
    <glyph glyph-name="Identity.11596" unicode="到" d="M355 265v-180c72 14 147 27 222 42l2 -43c-179 -35 -369 -73 -497 -99l-12 47c64 11 147 27 239 44v189h-204v44h204v119h46v-119h212v-44h-212zM394 644l36 21c57 -68 126 -159 157 -215l-37 -24c-11 19 -26 44 -44 70c-330 -35 -364 -39 -385 -49c-3 12 -10 36 -17 48 c15 2 31 21 49 45c17 22 68 99 105 179h-180v44h508v-44h-274c-39 -77 -85 -154 -132 -214l299 29c-27 38 -56 77 -85 110zM697 750v-603h-45v603h45zM853 813h47v-788c0 -39 -11 -55 -36 -64c-27 -8 -77 -9 -147 -9c-3 14 -12 36 -20 51c63 -2 118 -2 135 -1 c16 1 21 5 21 22v789z"/>
    <glyph glyph-name="Identity.11606" unicode="制" d="M351 637v-123h256v-45h-256v-118h214v-285c0 -27 -5 -41 -26 -49s-59 -8 -118 -8c-3 13 -9 30 -17 43c52 -1 88 -1 101 0c12 0 15 4 15 15v239h-169v-379h-46v379h-159v-296h-45v341h204v118h-254v45h254v123h-149c-18 -43 -37 -84 -58 -115c-9 6 -31 14 -44 19 c48 68 84 167 106 265l47 -9c-10 -39 -21 -78 -34 -114h132v147h46v-147h217v-46h-217zM741 736v-545h-45v545h45zM872 827h47v-818c0 -42 -11 -57 -38 -67c-26 -9 -79 -10 -151 -10c-4 14 -11 37 -18 54c63 -2 121 -2 139 -1c16 0 21 5 21 22v820z"/>
    <glyph glyph-name="Identity.11640" unicode="前" d="M173 197h254v121h-254v-121zM427 479h-254v-120h254v120zM473 523v-529c0 -31 -7 -45 -31 -53c-24 -9 -67 -9 -138 -9c-4 12 -10 31 -17 45c58 -2 107 -2 120 -1c16 0 20 4 20 19v161h-254v-225h-46v592h346zM819 -3v549h47v-548c0 -36 -9 -50 -34 -59 c-28 -8 -75 -9 -153 -9c-3 14 -12 34 -19 47c66 -1 122 -1 138 0s21 5 21 20zM662 513v-408h-45v408h45zM225 817l42 17c40 -44 84 -106 104 -146l-46 -19c-18 40 -61 103 -100 148zM690 669h250v-45h-881v45h578c35 48 77 120 100 170l50 -19c-29 -49 -65 -106 -97 -151z "/>
    <glyph glyph-name="Identity.11641" d="M170 197h257v121h-254v-38c0 -25 -1 -54 -3 -83zM427 480h-254v-121h254v121zM473 523v-529c0 -31 -7 -45 -31 -53c-24 -9 -67 -9 -138 -9c-4 12 -10 31 -17 45c58 -2 107 -2 120 -1c16 0 20 4 20 19v161h-261c-9 -82 -30 -168 -78 -233c-7 8 -26 24 -36 29 c68 96 76 226 76 328v243h345zM819 -3v549h47v-548c0 -36 -9 -50 -34 -59c-28 -8 -75 -9 -153 -9c-3 14 -12 34 -19 47c66 -1 122 -1 138 0s21 5 21 20zM662 513v-408h-45v408h45zM225 817l42 17c40 -44 84 -106 104 -146l-46 -19c-18 40 -61 103 -100 148zM690 669h250v-45 h-881v45h578c35 48 77 120 100 170l50 -19c-29 -49 -65 -106 -97 -151z"/>
    <glyph glyph-name="Identity.11682" unicode="剧" d="M167 423h200v125h-197c0 -38 -1 -81 -3 -125zM515 736h-345v-143h345v143zM523 22v179h-272v-179h272zM412 548v-125h200v-45h-200v-133h156v-310h-45v43h-272v-46h-44v313h160v133h-203c-9 -135 -32 -285 -87 -403c-8 10 -27 28 -37 34c76 166 84 391 84 548v223h437 v-232h-149zM729 714v-545h-45v545h45zM857 814h46v-823c0 -34 -10 -48 -31 -57c-23 -8 -61 -9 -129 -9c-3 13 -9 33 -17 46c53 -1 99 -1 111 0c14 0 20 5 20 20v823z"/>
    <glyph glyph-name="Identity.11778" unicode="力" d="M475 608h425s-1 -21 -1 -28c-25 -422 -46 -569 -90 -617c-21 -23 -41 -29 -76 -31c-33 -2 -97 0 -159 5c-2 14 -7 34 -17 48c72 -7 138 -7 163 -7c21 0 34 2 46 14c38 37 61 183 83 568h-376c-14 -208 -80 -451 -376 -637c-8 12 -25 29 -37 37c287 178 350 405 363 600 h-334v48h337c1 24 1 46 1 69v153h49v-153c0 -23 0 -45 -1 -69z"/>
    <glyph glyph-name="Identity.11780" unicode="劝" d="M426 136l-39 -30c-24 44 -58 100 -99 159c-62 -115 -139 -202 -223 -258c-7 12 -22 29 -34 38c85 53 165 144 226 265c-60 88 -130 179 -194 255l37 26c59 -71 123 -153 181 -233c39 90 70 193 89 308h-311v47h325l8 3l30 -11c-21 -153 -59 -283 -110 -392 c47 -66 87 -128 114 -177zM923 623v-29c-14 -436 -26 -580 -62 -621c-17 -23 -35 -30 -64 -32c-29 -1 -81 0 -132 3c-1 15 -7 34 -16 47c59 -5 112 -5 131 -5s30 2 39 15c28 31 43 174 56 574h-213c-5 -208 -44 -453 -272 -647c-9 10 -26 23 -40 32c224 186 260 423 264 615 h-163v48h163v209h48v-209h261z"/>
    <glyph glyph-name="Identity.11782" unicode="功" d="M438 273l5 -45c-136 -39 -281 -80 -384 -109l-13 49c48 12 106 27 171 44v450h-158v46h361v-46h-156v-437c56 16 116 32 174 48zM654 596h284s0 -21 -1 -28c-19 -416 -34 -559 -73 -603c-20 -22 -39 -28 -71 -30c-31 -2 -91 -1 -149 4c-2 14 -6 34 -15 47 c66 -6 127 -7 148 -7c22 0 34 3 44 15c33 34 51 173 67 555h-236c-17 -264 -75 -496 -309 -623c-6 12 -24 28 -35 36c225 117 280 337 296 587h-181v47h183c3 72 4 145 4 220h48c0 -75 -1 -148 -4 -220z"/>
    <glyph glyph-name="Identity.11783" d="M483 638v-28c-8 -454 -14 -595 -45 -636c-15 -22 -32 -29 -61 -31c-25 -2 -72 -1 -116 2c-1 14 -6 35 -14 48c51 -4 97 -4 116 -4c14 -1 24 1 33 15c23 28 33 172 39 587h-179c-9 -270 -43 -520 -181 -665c-9 9 -28 23 -40 30c134 135 166 376 174 635h-152v47h153 c2 60 2 121 2 182h47c0 -61 -1 -122 -2 -182h226zM625 62h233v594h-233v-594zM579 703h327v-756h-48v68h-233v-75h-46v763z"/>
    <glyph glyph-name="Identity.11784" unicode="加" d="M484 647v-29c-21 -445 -38 -589 -76 -634c-17 -22 -35 -29 -61 -30c-24 -2 -66 -1 -107 1c-1 16 -6 36 -14 49c46 -3 87 -4 105 -4c16 0 26 2 35 14c30 34 51 182 69 586h-166c-12 -250 -49 -514 -178 -666c-9 9 -27 23 -40 29c125 141 160 396 171 637h-152v47h153 c2 64 3 126 3 184h48c0 -59 -1 -120 -3 -184h213zM623 61h231v594h-231v-594zM576 702h327v-756h-49v68h-231v-74h-47v762z"/>
    <glyph glyph-name="Identity.11785" unicode="务" d="M858 275l-3 -24c-23 -189 -43 -262 -75 -291c-18 -16 -36 -21 -66 -22c-28 -1 -83 0 -139 4c-1 14 -8 31 -16 44c61 -6 121 -7 142 -7s32 1 41 9c25 21 44 89 63 243h-326c-61 -173 -187 -256 -393 -303c-4 12 -16 33 -25 44c194 35 311 109 368 259h-296v44h309 c9 33 16 69 21 109l50 -5c-5 -37 -12 -72 -21 -104h366zM764 683h-427c-6 -7 -13 -13 -19 -20c44 -61 111 -111 195 -148c102 42 191 98 251 168zM809 729l29 -22c-60 -91 -156 -161 -271 -214c110 -41 243 -64 386 -74c-10 -11 -22 -29 -27 -43c-154 14 -297 43 -414 93 c-138 -56 -295 -89 -443 -107c-3 13 -12 33 -20 44c137 13 282 41 410 88c-71 37 -130 83 -173 140c-44 -39 -94 -77 -151 -109c-8 11 -23 26 -34 34c141 78 242 187 294 275l52 -9c-19 -32 -44 -66 -71 -99h424z"/>
    <glyph glyph-name="Identity.11795" unicode="动" d="M478 748v-45h-381v45h381zM503 77l-43 -16c-6 22 -14 48 -24 77c-293 -60 -325 -69 -345 -81v1c-3 11 -11 36 -17 47c14 4 29 34 44 72c15 34 62 162 89 285h-147v45h437v-45h-240c-29 -117 -70 -242 -113 -338l278 55c-19 57 -44 119 -66 172l41 11 c40 -92 86 -215 106 -285zM939 595v-29c-15 -415 -28 -553 -63 -595c-18 -22 -36 -28 -66 -31c-30 -1 -86 0 -141 4c-1 15 -6 33 -15 47c62 -5 120 -5 140 -5c19 -1 31 1 40 14c29 31 44 167 58 548h-178c-14 -245 -57 -482 -207 -620c-7 11 -26 26 -39 32 c144 127 187 355 200 588h-158v47h160c3 74 4 148 4 220h47c-1 -72 -1 -146 -5 -220h223z"/>
    <glyph glyph-name="Identity.11796" unicode="助" d="M159 301v-203c66 15 143 31 221 48v155h-221zM380 735h-221v-174h221v174zM380 345v172h-221v-172h221zM488 169l4 -44l-441 -101l-10 49l73 15v692h312v-624zM923 600v-29c-12 -426 -22 -566 -55 -608c-16 -21 -35 -28 -64 -30c-31 -2 -87 0 -139 3c-2 15 -7 34 -15 47 c61 -5 118 -5 138 -5c18 -1 29 1 38 14c26 30 39 170 49 562h-185c-15 -260 -70 -496 -280 -630c-7 11 -24 27 -37 34c203 122 257 349 271 596h-181v46h184c3 77 3 156 3 233h46c0 -77 0 -156 -3 -233h230z"/>
    <glyph glyph-name="Identity.11946" d="M826 670h-559c-54 -96 -118 -181 -185 -245c-9 9 -31 26 -43 34c104 91 197 233 254 379l49 -13c-15 -37 -31 -73 -50 -108h583v-28c-10 -346 -20 -463 -51 -499c-15 -19 -32 -26 -61 -27c-29 -2 -82 -1 -138 2c-1 14 -5 34 -14 47c60 -5 114 -6 134 -6c18 0 28 2 37 13 c24 26 35 138 44 451zM365 -14h412c94 0 109 23 118 144c14 -7 33 -15 47 -18c-12 -138 -35 -172 -166 -172h-404c-143 0 -186 16 -186 98v264h357v200h-354v44h404v-289h-359v-220c0 -40 22 -51 131 -51z"/>
    <glyph glyph-name="Identity.11947" unicode="包" d="M814 650h-552c-54 -78 -115 -145 -179 -197c-8 8 -29 25 -41 33c111 83 210 213 270 352l47 -14c-20 -44 -42 -87 -68 -128h572v-27c-13 -344 -23 -459 -51 -494c-16 -18 -32 -24 -59 -26c-24 -2 -69 -2 -116 2c-1 14 -6 33 -13 46c49 -5 95 -5 111 -5s26 2 35 13 c21 25 33 136 44 445zM552 483h-305v-193h305v193zM376 -5h419c88 0 102 25 111 135c14 -9 33 -16 48 -19c-13 -126 -35 -162 -161 -162h-410c-140 0 -183 22 -183 117v461h399v-281h-352v-180c0 -55 21 -71 129 -71z"/>
    <glyph glyph-name="Identity.11977" d="M330 816l46 -15c-32 -75 -73 -147 -118 -214v-658h-47v592c-47 -62 -98 -118 -150 -164c-6 11 -22 34 -32 45c119 98 233 252 301 414zM613 -11h225c59 0 68 39 75 188c12 -10 32 -20 47 -23c-10 -158 -26 -211 -122 -211h-225c-93 0 -122 24 -122 115v752h48v-391 c121 69 252 153 328 226l34 -40c-91 -80 -233 -163 -362 -234v-315c0 -53 14 -67 74 -67z"/>
    <glyph glyph-name="Identity.11978" unicode="化" d="M331 831l46 -14c-29 -68 -64 -137 -103 -200v-691h-49v617c-44 -63 -91 -120 -139 -167c-7 11 -24 34 -33 43c109 100 214 253 278 412zM640 -6h193c59 0 66 44 74 219c14 -10 32 -20 48 -24c-10 -183 -24 -243 -121 -243h-195c-88 0 -114 23 -114 115v214 c-51 -33 -103 -64 -153 -92c-8 11 -23 27 -35 35c63 33 126 71 188 114v481h50v-445c119 91 229 197 304 311l47 -29c-90 -127 -216 -243 -351 -339v-252c0 -53 12 -65 65 -65z"/>
    <glyph glyph-name="Identity.11979" d="M330 829l44 -15c-29 -65 -64 -130 -103 -191v-697h-46v630c-50 -69 -105 -131 -160 -182c-6 10 -20 34 -30 44c116 98 227 252 295 411zM612 12h205c58 0 67 47 74 221c14 -10 32 -20 47 -23c-10 -183 -24 -243 -122 -243h-204c-87 0 -113 22 -113 112v739h46v-283h362 v-47h-362v-411c0 -51 14 -65 67 -65z"/>
    <glyph glyph-name="Identity.11980" unicode="北" d="M339 570v244h48v-879h-48v236c-97 -41 -196 -83 -272 -115l-24 46c75 26 186 71 296 116v304h-268v48h268zM684 -1h174c51 0 58 44 64 213c13 -11 33 -21 46 -24c-7 -176 -21 -236 -109 -236h-177c-80 0 -105 23 -105 110v751h49v-352c101 61 209 135 273 197l38 -40 c-82 -69 -202 -143 -311 -206v-351c0 -51 10 -62 58 -62z"/>
    <glyph glyph-name="Identity.11981" d="M386 116l87 35l9 -41c-145 -63 -303 -129 -415 -175l-24 46c75 28 182 69 295 115v426h-268v47h268v244h48v-697zM675 19h138c50 0 56 50 62 249c14 -12 32 -22 46 -24c-7 -205 -19 -272 -106 -272h-143c-73 0 -95 22 -95 106v734h49v-242h291v-48h-291v-445 c0 -48 9 -58 49 -58z"/>
    <glyph glyph-name="Identity.12050" d="M945 34v-46h-794v-63h-47v842h819v-47h-772v-686h794zM818 172l-39 -36c-50 64 -130 141 -222 217c-88 -102 -188 -191 -291 -261c-8 10 -27 29 -39 37c105 66 206 153 294 253c-81 65 -168 128 -251 180l34 30c81 -51 167 -111 247 -174c66 79 125 166 172 255l46 -16 c-52 -96 -113 -186 -181 -268c94 -76 177 -153 230 -217z"/>
    <glyph glyph-name="Identity.12051" unicode="区" d="M155 4h792v-46h-840v814h815v-46h-767v-722zM813 123l-41 -34c-52 67 -132 155 -222 245c-87 -95 -183 -178 -280 -245c-8 9 -28 28 -40 36c101 64 199 147 287 241c-85 83 -176 165 -260 235l36 28c82 -68 172 -148 255 -227c72 82 137 173 190 266l45 -18 c-58 -100 -126 -194 -202 -281c93 -90 177 -178 232 -246z"/>
    <glyph glyph-name="Identity.12052" d="M945 27v-47h-793v-50h-47v842h819v-46h-772v-699h793zM907 362h-322c52 -129 164 -210 323 -243c-12 -10 -25 -28 -32 -42c-148 37 -256 115 -317 237c-29 -86 -107 -174 -311 -238c-7 10 -19 27 -29 36c227 68 288 163 303 250h-304v44h309v21v126h-174 c-28 -38 -59 -71 -91 -98c-9 7 -30 18 -41 25c68 53 128 133 161 218l46 -11c-12 -31 -28 -61 -45 -90h476v-44h-284v-126v-21h332v-44z"/>
    <glyph glyph-name="Identity.12053" unicode="医" d="M151 15h796v-46h-844v804h822v-47h-774v-711zM906 334h-334c-3 -15 -6 -29 -11 -44l26 21c96 -73 213 -177 272 -245l-37 -32c-55 65 -169 171 -265 247c-31 -88 -110 -176 -304 -242c-6 11 -20 28 -30 37c220 70 284 168 301 258h-308v44h314c1 12 1 24 1 34v137h-177 c-29 -39 -61 -74 -92 -101c-9 7 -30 20 -41 26c68 54 128 135 161 223l46 -12c-13 -32 -27 -63 -46 -92h476v-44h-280v-136c0 -11 0 -23 -1 -35h329v-44z"/>
    <glyph glyph-name="Identity.12054" d="M907 341h-334c-3 -14 -6 -28 -11 -42l29 24c95 -65 212 -162 271 -224l-35 -35c-56 62 -172 160 -267 228c-29 -86 -102 -171 -278 -236c-7 11 -21 30 -30 39c195 66 255 160 272 246h-306v45h312c1 12 1 23 1 33v131h-177c-29 -39 -60 -75 -93 -102c-8 7 -29 20 -41 26 c69 55 129 136 162 224l46 -11c-13 -32 -27 -64 -46 -93h476v-44h-279v-132c0 -10 0 -21 -1 -32h329v-45zM942 774v-44h-754v-601c0 -80 40 -114 144 -114h441c46 0 117 3 149 10c1 -15 7 -37 10 -47c-22 -5 -86 -7 -157 -7h-437c-134 0 -198 44 -198 162v597h-51v44h853z "/>
    <glyph glyph-name="Identity.12078" unicode="升" d="M943 426v-47h-223v-453h-48v453h-336c-5 -170 -46 -333 -255 -455c-7 11 -23 28 -34 36c198 113 236 264 241 419h-231v47h232v249c-68 -20 -137 -37 -204 -52c-3 11 -11 27 -17 38c158 37 342 91 437 150l41 -37c-56 -30 -130 -59 -209 -84v-264h335v384h48v-384h223z "/>
    <glyph glyph-name="Identity.12086" unicode="华" d="M535 450v119c-51 -16 -104 -31 -156 -43c-2 10 -10 27 -17 38c57 15 116 31 173 49v208h48v-192c111 37 213 80 277 126l40 -35c-81 -52 -195 -97 -317 -137v-134c0 -29 9 -37 60 -37h190c41 0 48 18 52 117c13 -9 31 -16 45 -20c-7 -111 -22 -141 -95 -141h-193 c-83 0 -107 16 -107 82zM236 339v293c-45 -47 -93 -88 -140 -121c-8 9 -27 26 -38 34c107 69 214 177 280 288l45 -15c-28 -47 -63 -93 -100 -136v-343h-47zM942 219v-47h-418v-245h-49v245h-419v47h419v121h49v-121h418z"/>
    <glyph glyph-name="Identity.12087" d="M837 368h-197c-84 0 -108 16 -108 81v373h47v-146h336v-45h-336v-182c0 -30 9 -37 61 -37h195c41 0 49 17 53 116c12 -9 30 -16 44 -20c-7 -110 -22 -140 -95 -140zM237 337v291c-48 -47 -100 -89 -150 -124c-8 9 -25 27 -37 35c113 68 224 175 294 289l44 -16 c-30 -47 -65 -92 -104 -135v-340h-47zM942 218v-45h-418v-246h-49v246h-419v45h419v122h49v-122h418z"/>
    <glyph glyph-name="Identity.12088" unicode="协" d="M338 554h-115v-626h-46v626h-123v46h123v232h46v-232h115v-46zM401 472l45 -9c-22 -106 -60 -212 -105 -283c-9 8 -27 21 -39 28c45 67 80 165 99 264zM611 641h211s-1 -22 -1 -28c-12 -455 -22 -603 -57 -646c-16 -22 -35 -29 -66 -31c-29 -2 -85 0 -138 3 c-2 15 -7 34 -16 47c62 -5 120 -6 140 -6c19 0 29 3 39 15c29 32 40 181 51 599h-164c-6 -211 -47 -466 -290 -669c-8 11 -25 25 -37 33c236 194 274 436 280 636h-193v47h194v23v156h47v-156v-23zM849 460l43 7c31 -89 59 -206 69 -273l-47 -12c-9 70 -37 187 -65 278z"/>
    <glyph glyph-name="Identity.12096" unicode="单" d="M203 314h271v132h-271v-132zM203 616v-129h271v129h-271zM805 487v129h-282v-129h282zM805 314v132h-282v-132h282zM944 159v-45h-421v-188h-49v188h-415v45h415v112h-318v388h198c-21 41 -65 103 -106 149l39 21c43 -47 90 -110 110 -150l-34 -20h254 c37 49 82 121 108 171l50 -20c-31 -50 -69 -106 -104 -151h182v-388h-330v-112h421z"/>
    <glyph glyph-name="Identity.12098" unicode="南" d="M763 134h-243v-193h-46v193h-233v42h233v123h-212v42h305c24 44 54 104 68 146l44 -12c-20 -45 -45 -94 -68 -134h137v-42h-228v-123h243v-42zM319 471l38 13c29 -39 55 -89 66 -124l-40 -14c-10 35 -36 87 -64 125zM938 676h-420c-5 -44 -11 -88 -16 -124h374v-558 c0 -37 -10 -53 -37 -61c-29 -8 -84 -8 -166 -8c-4 14 -10 32 -18 47c71 -3 132 -3 149 -2c19 1 23 6 23 23v514h-651v-580h-47v625h328c5 35 10 80 14 124h-407v46h411c3 40 6 79 7 112l51 -6c-3 -33 -7 -70 -10 -106h415v-46z"/>
    <glyph glyph-name="Identity.12114" d="M944 410h-437v-116l10 15c114 -30 266 -79 348 -117l-25 -42c-75 35 -217 86 -333 118v-341h-49v483h-400v47h400v376h49v-157h329v-46h-329v-173h437v-47z"/>
    <glyph glyph-name="Identity.12115" unicode="卡" d="M541 248l25 37c108 -42 252 -103 328 -142l-25 -42c-75 39 -219 104 -328 147zM506 456h438v-47h-437v-483h-49v483h-400v47h399v377h49v-156h332v-47h-332v-174z"/>
    <glyph glyph-name="Identity.12143" d="M431 731h-268v-153h268v153zM163 386h268v148h-268v-148zM302 257l39 20c71 -85 144 -200 174 -275l-42 -23c-12 32 -32 71 -56 112c-125 -40 -257 -81 -351 -109l-20 47c21 6 45 13 71 20v727h360v-436h-314v-277c69 20 149 44 229 69c-28 44 -59 88 -90 125zM913 774 v-610c0 -34 -7 -52 -34 -62c-24 -9 -74 -10 -145 -10c-2 14 -10 38 -18 53c61 -2 112 -1 130 0c15 0 19 4 19 20v561h-252v-800h-48v848h348z"/>
    <glyph glyph-name="Identity.12144" unicode="即" d="M432 735h-265v-157h265v157zM167 366h265v167h-265v-167zM324 237l40 18c52 -81 113 -189 141 -252l-42 -24c-12 30 -31 68 -53 109c-262 -100 -291 -111 -309 -126c-4 13 -13 36 -22 48c15 7 40 24 40 61v708h360v-457h-312v-275l224 77c-22 39 -45 79 -67 113zM903 773 v-574c0 -34 -8 -49 -31 -58c-25 -8 -70 -9 -148 -8c-2 13 -8 32 -16 46c62 -2 113 -2 127 -1c16 1 21 6 21 20v529h-218v-801h-47v847h312z"/>
    <glyph glyph-name="Identity.12145" d="M359 245l40 16c56 -82 115 -192 138 -261l-44 -17c-7 21 -17 47 -30 74c-149 -13 -302 -25 -411 -34l-7 49l78 5c38 84 84 212 110 308h-186v46h225v188h-183v45h183v169h46v-169h176v-45h-176v-188h212v-46h-244l3 -1c-32 -94 -76 -216 -115 -303c80 6 174 13 267 21 c-24 48 -54 100 -82 143zM909 773v-587c0 -33 -8 -50 -34 -59c-24 -9 -72 -10 -143 -10c-2 14 -11 36 -17 51c60 -2 111 -2 128 0c15 0 19 5 19 18v541h-245v-799h-47v845h339z"/>
    <glyph glyph-name="Identity.12146" unicode="却" d="M376 283l39 17c49 -85 102 -197 120 -266l-42 -20c-7 24 -17 53 -29 86c-300 -55 -332 -62 -351 -73c-3 11 -11 36 -17 47c16 3 31 28 51 60c20 31 81 146 120 257h-201v46h220v186h-186v46h186v164h47v-164h165v-46h-165v-186h192v-46h-205c-42 -107 -95 -216 -149 -300 l277 46c-22 50 -47 102 -72 146zM907 773v-614c0 -35 -7 -51 -32 -60c-26 -10 -74 -11 -144 -11c-2 15 -9 37 -17 51c61 -2 112 -1 128 0c15 1 19 5 19 20v568h-218v-800h-47v846h311z"/>
    <glyph glyph-name="Identity.12170" unicode="厂" d="M929 754v-49h-728v-244c0 -156 -14 -377 -112 -530c-9 10 -29 23 -42 28c95 148 104 353 104 503v292h778z"/>
    <glyph glyph-name="Identity.12209" d="M379 200l47 -14c-56 -82 -138 -164 -211 -218c-9 8 -29 22 -40 30c75 50 153 127 204 202zM343 418v-114h459v114h-459zM343 571v-113h459v113h-459zM851 263h-257v-276c0 -30 -7 -45 -32 -52c-26 -8 -73 -8 -154 -8c-2 12 -10 30 -17 43c67 -1 120 -1 136 -1 c16 1 20 6 20 18v276h-251v349h214c12 34 25 78 33 113h-352v-238c0 -162 -12 -395 -107 -557c-8 7 -28 20 -40 25c91 158 100 375 100 533v282h793v-45h-340c-12 -38 -25 -79 -38 -113h292v-349zM702 179l37 24c80 -59 173 -143 215 -204l-38 -28c-42 60 -134 148 -214 208 z"/>
    <glyph glyph-name="Identity.12210" unicode="原" d="M379 197l45 -16c-53 -71 -123 -153 -180 -208c-10 7 -29 21 -42 27c62 54 129 129 177 197zM343 411v-111h460v111h-460zM343 560v-109h460v109h-460zM852 259h-257v-270c0 -31 -8 -45 -32 -53c-26 -8 -73 -8 -154 -8c-3 13 -11 30 -17 43c67 -2 120 -2 135 -1 c17 1 21 6 21 18v271h-252v343h207c16 33 32 76 42 106l53 -11c-15 -31 -30 -65 -45 -95h299v-343zM701 173l38 20c64 -62 146 -148 188 -198l-40 -28c-41 53 -122 142 -186 206zM937 770v-45h-746v-233c0 -158 -13 -386 -107 -546c-9 8 -28 21 -40 26 c91 154 100 367 100 520v278h793z"/>
    <glyph glyph-name="Identity.12218" unicode="厦" d="M185 734v-244c0 -163 -11 -397 -101 -561c-7 8 -28 20 -40 25c87 160 94 379 94 537v288h801v-45h-754zM409 143l-1 -1c36 -38 88 -70 150 -95c63 25 117 57 156 96h-305zM362 333v-60h409v60h-409zM362 428v-59h409v59h-409zM362 522v-58h409v58h-409zM761 183l29 -18 c-42 -58 -104 -103 -179 -137c100 -33 218 -51 342 -59c-10 -10 -21 -28 -27 -41c-134 11 -263 35 -369 77c-107 -41 -233 -64 -357 -77c-4 12 -14 29 -21 39c112 10 227 29 326 61c-53 25 -98 56 -133 92c-44 -26 -93 -50 -148 -71c-7 10 -20 25 -31 31 c121 44 217 102 273 157h-150v321h209c6 21 15 46 22 68h-321v40h690v-40h-320c-9 -24 -18 -47 -27 -68h249v-321h-292c-19 -19 -41 -38 -65 -57h290z"/>
    <glyph glyph-name="Identity.12219" d="M718 143h-308c-9 -7 -19 -14 -28 -21c45 -33 98 -61 159 -83c71 26 133 61 177 104zM362 333v-61h409v61h-409zM362 428v-60h409v60h-409zM362 521v-58h409v58h-409zM763 183l31 -20c-46 -61 -113 -108 -194 -143c95 -27 203 -45 319 -53c-10 -10 -21 -27 -27 -40 c-128 11 -248 33 -352 69c-105 -36 -224 -57 -343 -69c-4 12 -14 29 -22 39c106 10 211 26 306 53c-51 23 -96 48 -135 80c-30 -19 -63 -37 -97 -53c-6 10 -21 24 -31 31c35 15 66 32 96 49c-20 19 -37 39 -53 61l39 17c14 -20 31 -39 49 -55c43 28 78 59 104 88h-137v320 h208c7 21 16 46 23 69h-322v39h690v-39h-319c-9 -25 -18 -48 -27 -69h249v-320h-308c-17 -20 -34 -38 -55 -57h298zM939 779v-45h-754v-244c0 -163 -12 -397 -101 -562c-8 9 -28 20 -40 25c86 161 94 380 94 538v288h801z"/>
    <glyph glyph-name="Identity.12256" d="M946 360h-495c-48 -103 -109 -233 -166 -329c154 5 337 13 517 21c-46 64 -101 133 -152 188l42 21c92 -97 193 -229 239 -315l-46 -26c-13 26 -31 55 -53 87c-268 -12 -550 -25 -733 -32l-6 51c40 1 86 2 136 4c56 93 122 230 162 330h-332v48h415v215h-337v48h337v163 h49v-163h347v-48h-347v-215h423v-48z"/>
    <glyph glyph-name="Identity.12257" unicode="去" d="M945 354h-492c-72 -121 -154 -236 -236 -325l549 41c-46 66 -102 135 -154 192l41 20c92 -98 193 -230 239 -316l-45 -26c-13 27 -31 57 -53 90c-566 -47 -614 -50 -644 -63c-2 11 -10 35 -17 49c19 3 42 29 72 66c29 32 122 151 191 272h-337v47h416v215h-338v48h338 v170h49v-170h346v-48h-346v-215h421v-47z"/>
    <glyph glyph-name="Identity.12281" d="M328 730v-25c55 -236 147 -429 298 -562c100 84 179 197 223 344h-216l-16 -57l-48 8c26 89 57 211 76 292h-317zM877 536l32 -14c-46 -180 -134 -313 -246 -409c83 -64 183 -112 302 -141c-11 -10 -25 -30 -32 -43c-123 33 -224 84 -309 152 c-100 -75 -215 -124 -336 -155c-5 12 -16 32 -26 42c116 26 228 73 325 144c-120 110 -203 258 -261 437c-7 -186 -48 -406 -248 -602c-6 12 -24 30 -35 38c224 216 237 464 237 651v94h-186v47h567l9 3l35 -7c-15 -65 -37 -155 -59 -239h222z"/>
    <glyph glyph-name="Identity.12282" unicode="及" d="M328 729v-49c55 -224 147 -409 295 -537c99 83 177 196 220 343h-268c21 63 46 160 66 243h-313zM872 535l30 -14c-44 -180 -131 -312 -242 -408c82 -61 179 -107 294 -136c-11 -10 -24 -29 -32 -43c-119 32 -218 82 -301 147c-95 -71 -205 -120 -319 -151 c-6 13 -18 33 -28 42c111 27 218 72 310 141c-119 106 -200 250 -258 424c-9 -184 -52 -400 -248 -591c-7 12 -24 29 -35 38c223 216 237 465 237 652v93h-186v48h605c-18 -77 -42 -172 -61 -245h224z"/>
    <glyph glyph-name="Identity.12283" d="M843 448h-428c46 -125 119 -232 216 -315c94 78 170 182 212 315zM328 736v-99c0 -45 -1 -92 -5 -142h253c21 68 45 161 64 241h-312zM874 497l31 -15c-45 -165 -129 -289 -236 -379c80 -60 176 -104 287 -129c-11 -11 -25 -31 -32 -44c-115 29 -213 77 -295 142 c-99 -72 -213 -119 -331 -149c-5 13 -17 33 -27 44c114 24 225 69 320 137c-99 89 -174 206 -222 344h-50c-19 -162 -75 -340 -241 -501c-7 12 -24 30 -35 38c223 216 237 464 237 651v100h-186v47h605c-21 -91 -52 -209 -74 -288h239z"/>
    <glyph glyph-name="Identity.12284" unicode="友" d="M749 413h-384c44 -110 110 -202 197 -274c82 70 147 160 187 274zM778 462l32 -16c-42 -145 -115 -254 -209 -337c96 -68 213 -115 352 -141c-10 -11 -23 -28 -30 -42c-142 28 -262 80 -359 153c-95 -74 -206 -123 -323 -154c-6 14 -17 32 -28 42c113 28 221 74 313 142 c-83 73 -148 164 -195 273c-45 -158 -119 -321 -246 -425c-9 10 -27 23 -41 31c185 146 257 422 286 621h-256v46h263c11 89 13 156 15 178h48c-2 -26 -5 -92 -15 -178h546v-46h-552c-7 -47 -15 -97 -28 -150h418z"/>
    </font>
</defs>
</svg>
